<?plantuml 1.2026.1?><svg xmlns="http://www.w3.org/2000/svg" xmlns:xlink="http://www.w3.org/1999/xlink" contentStyleType="text/css" data-diagram-type="CLASS" height="1081px" preserveAspectRatio="none" style="width:995px;height:1081px;background:#808080;" version="1.1" viewBox="0 0 995 1081" width="995px" zoomAndPan="magnify"><defs/><g><rect fill="#808080" height="1081" style="stroke:none;stroke-width:1;" width="995" x="0" y="0"/><!--class Discovery--><g class="entity" data-qualified-name="Discovery" data-source-line="4" id="ent0002"><rect fill="#F1F1F1" height="48" rx="2.5" ry="2.5" style="stroke:#181818;stroke-width:0.5;" width="222.8613" x="534" y="225"/><ellipse cx="549" cy="241" fill="#ADD1B2" rx="11" ry="11" style="stroke:#181818;stroke-width:1;"/><path d="M551.9688,246.6406 Q551.3906,246.9375 550.75,247.0781 Q550.1094,247.2344 549.4063,247.2344 Q546.9063,247.2344 545.5781,245.5938 Q544.2656,243.9375 544.2656,240.8125 Q544.2656,237.6875 545.5781,236.0313 Q546.9063,234.375 549.4063,234.375 Q550.1094,234.375 550.75,234.5313 Q551.4063,234.6875 551.9688,234.9844 L551.9688,237.7031 Q551.3438,237.125 550.75,236.8594 Q550.1563,236.5781 549.5313,236.5781 Q548.1875,236.5781 547.5,237.6563 Q546.8125,238.7188 546.8125,240.8125 Q546.8125,242.9063 547.5,243.9844 Q548.1875,245.0469 549.5313,245.0469 Q550.1563,245.0469 550.75,244.7813 Q551.3438,244.5 551.9688,243.9219 L551.9688,246.6406 Z " fill="#000000"/><text fill="#000000" font-family="sans-serif" font-size="14" lengthAdjust="spacing" textLength="190.8613" x="563" y="246.432">ableton::discovery::Discovery</text><line style="stroke:#181818;stroke-width:0.5;" x1="535" x2="755.8613" y1="257" y2="257"/><line style="stroke:#181818;stroke-width:0.5;" x1="535" x2="755.8613" y1="265" y2="265"/></g><!--class LinkExtender--><g class="entity" data-qualified-name="LinkExtender" data-source-line="6" id="ent0003"><rect fill="#F1F1F1" height="48" rx="2.5" ry="2.5" style="stroke:#181818;stroke-width:0.5;" width="118.1557" x="421.5" y="7"/><ellipse cx="436.5" cy="23" fill="#ADD1B2" rx="11" ry="11" style="stroke:#181818;stroke-width:1;"/><path d="M439.4688,28.6406 Q438.8906,28.9375 438.25,29.0781 Q437.6094,29.2344 436.9063,29.2344 Q434.4063,29.2344 433.0781,27.5938 Q431.7656,25.9375 431.7656,22.8125 Q431.7656,19.6875 433.0781,18.0313 Q434.4063,16.375 436.9063,16.375 Q437.6094,16.375 438.25,16.5313 Q438.9063,16.6875 439.4688,16.9844 L439.4688,19.7031 Q438.8438,19.125 438.25,18.8594 Q437.6563,18.5781 437.0313,18.5781 Q435.6875,18.5781 435,19.6563 Q434.3125,20.7188 434.3125,22.8125 Q434.3125,24.9063 435,25.9844 Q435.6875,27.0469 437.0313,27.0469 Q437.6563,27.0469 438.25,26.7813 Q438.8438,26.5 439.4688,25.9219 L439.4688,28.6406 Z " fill="#000000"/><text fill="#000000" font-family="sans-serif" font-size="14" lengthAdjust="spacing" textLength="86.1557" x="450.5" y="28.432">LinkExtender</text><line style="stroke:#181818;stroke-width:0.5;" x1="422.5" x2="538.6557" y1="39" y2="39"/><line style="stroke:#181818;stroke-width:0.5;" x1="422.5" x2="538.6557" y1="47" y2="47"/></g><!--class Controller--><g class="entity" data-qualified-name="Controller" data-source-line="6" id="ent0004"><rect fill="#F1F1F1" height="48" rx="2.5" ry="2.5" style="stroke:#181818;stroke-width:0.5;" width="98.1777" x="431.5" y="116"/><ellipse cx="446.5" cy="132" fill="#ADD1B2" rx="11" ry="11" style="stroke:#181818;stroke-width:1;"/><path d="M449.4688,137.6406 Q448.8906,137.9375 448.25,138.0781 Q447.6094,138.2344 446.9063,138.2344 Q444.4063,138.2344 443.0781,136.5938 Q441.7656,134.9375 441.7656,131.8125 Q441.7656,128.6875 443.0781,127.0313 Q444.4063,125.375 446.9063,125.375 Q447.6094,125.375 448.25,125.5313 Q448.9063,125.6875 449.4688,125.9844 L449.4688,128.7031 Q448.8438,128.125 448.25,127.8594 Q447.6563,127.5781 447.0313,127.5781 Q445.6875,127.5781 445,128.6563 Q444.3125,129.7188 444.3125,131.8125 Q444.3125,133.9063 445,134.9844 Q445.6875,136.0469 447.0313,136.0469 Q447.6563,136.0469 448.25,135.7813 Q448.8438,135.5 449.4688,134.9219 L449.4688,137.6406 Z " fill="#000000"/><text fill="#000000" font-family="sans-serif" font-size="14" lengthAdjust="spacing" textLength="66.1777" x="460.5" y="137.432">Controller</text><line style="stroke:#181818;stroke-width:0.5;" x1="432.5" x2="528.6777" y1="148" y2="148"/><line style="stroke:#181818;stroke-width:0.5;" x1="432.5" x2="528.6777" y1="156" y2="156"/></g><!--class LocalPeers--><g class="entity" data-qualified-name="LocalPeers" data-source-line="8" id="ent0007"><rect fill="#F1F1F1" height="48" rx="2.5" ry="2.5" style="stroke:#181818;stroke-width:0.5;" width="102.7417" x="7" y="898"/><ellipse cx="22" cy="914" fill="#ADD1B2" rx="11" ry="11" style="stroke:#181818;stroke-width:1;"/><path d="M24.9688,919.6406 Q24.3906,919.9375 23.75,920.0781 Q23.1094,920.2344 22.4063,920.2344 Q19.9063,920.2344 18.5781,918.5938 Q17.2656,916.9375 17.2656,913.8125 Q17.2656,910.6875 18.5781,909.0313 Q19.9063,907.375 22.4063,907.375 Q23.1094,907.375 23.75,907.5313 Q24.4063,907.6875 24.9688,907.9844 L24.9688,910.7031 Q24.3438,910.125 23.75,909.8594 Q23.1563,909.5781 22.5313,909.5781 Q21.1875,909.5781 20.5,910.6563 Q19.8125,911.7188 19.8125,913.8125 Q19.8125,915.9063 20.5,916.9844 Q21.1875,918.0469 22.5313,918.0469 Q23.1563,918.0469 23.75,917.7813 Q24.3438,917.5 24.9688,916.9219 L24.9688,919.6406 Z " fill="#000000"/><text fill="#000000" font-family="sans-serif" font-size="14" lengthAdjust="spacing" textLength="70.7417" x="36" y="919.432">LocalPeers</text><line style="stroke:#181818;stroke-width:0.5;" x1="8" x2="108.7417" y1="930" y2="930"/><line style="stroke:#181818;stroke-width:0.5;" x1="8" x2="108.7417" y1="938" y2="938"/></g><!--class RemotePeers--><g class="entity" data-qualified-name="RemotePeers" data-source-line="9" id="ent0009"><rect fill="#F1F1F1" height="48" rx="2.5" ry="2.5" style="stroke:#181818;stroke-width:0.5;" width="119.8637" x="868.5" y="898"/><ellipse cx="883.5" cy="914" fill="#ADD1B2" rx="11" ry="11" style="stroke:#181818;stroke-width:1;"/><path d="M886.4688,919.6406 Q885.8906,919.9375 885.25,920.0781 Q884.6094,920.2344 883.9063,920.2344 Q881.4063,920.2344 880.0781,918.5938 Q878.7656,916.9375 878.7656,913.8125 Q878.7656,910.6875 880.0781,909.0313 Q881.4063,907.375 883.9063,907.375 Q884.6094,907.375 885.25,907.5313 Q885.9063,907.6875 886.4688,907.9844 L886.4688,910.7031 Q885.8438,910.125 885.25,909.8594 Q884.6563,909.5781 884.0313,909.5781 Q882.6875,909.5781 882,910.6563 Q881.3125,911.7188 881.3125,913.8125 Q881.3125,915.9063 882,916.9844 Q882.6875,918.0469 884.0313,918.0469 Q884.6563,918.0469 885.25,917.7813 Q885.8438,917.5 886.4688,916.9219 L886.4688,919.6406 Z " fill="#000000"/><text fill="#000000" font-family="sans-serif" font-size="14" lengthAdjust="spacing" textLength="87.8637" x="897.5" y="919.432">RemotePeers</text><line style="stroke:#181818;stroke-width:0.5;" x1="869.5" x2="987.3637" y1="930" y2="930"/><line style="stroke:#181818;stroke-width:0.5;" x1="869.5" x2="987.3637" y1="938" y2="938"/></g><!--class Tunnel--><g class="entity" data-qualified-name="Tunnel" data-source-line="10" id="ent0011"><rect fill="#F1F1F1" height="143.3396" rx="2.5" ry="2.5" style="stroke:#181818;stroke-width:0.5;" width="278.923" x="270" y="443"/><ellipse cx="382.5876" cy="459" fill="#ADD1B2" rx="11" ry="11" style="stroke:#181818;stroke-width:1;"/><path d="M385.5564,464.6406 Q384.9782,464.9375 384.3376,465.0781 Q383.697,465.2344 382.9939,465.2344 Q380.4939,465.2344 379.1657,463.5938 Q377.8532,461.9375 377.8532,458.8125 Q377.8532,455.6875 379.1657,454.0313 Q380.4939,452.375 382.9939,452.375 Q383.697,452.375 384.3376,452.5313 Q384.9939,452.6875 385.5564,452.9844 L385.5564,455.7031 Q384.9314,455.125 384.3376,454.8594 Q383.7439,454.5781 383.1189,454.5781 Q381.7751,454.5781 381.0876,455.6563 Q380.4001,456.7188 380.4001,458.8125 Q380.4001,460.9063 381.0876,461.9844 Q381.7751,463.0469 383.1189,463.0469 Q383.7439,463.0469 384.3376,462.7813 Q384.9314,462.5 385.5564,461.9219 L385.5564,464.6406 Z " fill="#000000"/><text fill="#000000" font-family="sans-serif" font-size="14" lengthAdjust="spacing" textLength="45.2478" x="403.0876" y="464.432">Tunnel</text><line style="stroke:#181818;stroke-width:0.5;" x1="271" x2="547.923" y1="475" y2="475"/><g data-visibility-modifier="PROTECTED_FIELD"><polygon fill="none" points="281,485.034,285,489.034,281,493.034,277,489.034" style="stroke:#B38D22;stroke-width:1;"/></g><text fill="#000000" font-family="sans-serif" font-size="14" lengthAdjust="spacing" textLength="252.923" x="290" y="493.9659">std::vector&lt;TunnelGateway&gt; gateways</text><line style="stroke:#181818;stroke-width:0.5;" x1="271" x2="547.923" y1="502.0679" y2="502.0679"/><g data-visibility-modifier="PUBLIC_METHOD"><ellipse cx="281" cy="517.1019" fill="#84BE84" rx="3" ry="3" style="stroke:#038048;stroke-width:1;"/></g><text fill="#000000" font-family="sans-serif" font-size="14" lengthAdjust="spacing" textLength="92.1617" x="290" y="521.0339">void forward()</text><g data-visibility-modifier="PROTECTED_METHOD"><polygon fill="#FFFF44" points="281,531.1698,285,535.1698,281,539.1698,277,535.1698" style="stroke:#B38D22;stroke-width:1;"/></g><text fill="#000000" font-family="sans-serif" font-size="14" lengthAdjust="spacing" textLength="139.3975" x="290" y="540.1018">void forward_locally()</text><g data-visibility-modifier="PROTECTED_METHOD"><polygon fill="#FFFF44" points="281,550.2377,285,554.2377,281,558.2377,277,554.2377" style="stroke:#B38D22;stroke-width:1;"/></g><text fill="#000000" font-family="sans-serif" font-size="14" lengthAdjust="spacing" textLength="114.0575" x="290" y="559.1697">... encapsulate(...)</text><g data-visibility-modifier="PROTECTED_METHOD"><polygon fill="#FFFF44" points="281,569.3056,285,573.3056,281,577.3056,277,573.3056" style="stroke:#B38D22;stroke-width:1;"/></g><text fill="#000000" font-family="sans-serif" font-size="14" lengthAdjust="spacing" textLength="114.0155" x="290" y="578.2376">... decapsulate(...)</text></g><!--class GatewayFactory--><g class="entity" data-qualified-name="GatewayFactory" data-source-line="11" id="ent0013"><rect fill="#F1F1F1" height="48" rx="2.5" ry="2.5" style="stroke:#181818;stroke-width:0.5;" width="137.2796" x="507" y="334"/><ellipse cx="522" cy="350" fill="#ADD1B2" rx="11" ry="11" style="stroke:#181818;stroke-width:1;"/><path d="M524.9688,355.6406 Q524.3906,355.9375 523.75,356.0781 Q523.1094,356.2344 522.4063,356.2344 Q519.9063,356.2344 518.5781,354.5938 Q517.2656,352.9375 517.2656,349.8125 Q517.2656,346.6875 518.5781,345.0313 Q519.9063,343.375 522.4063,343.375 Q523.1094,343.375 523.75,343.5313 Q524.4063,343.6875 524.9688,343.9844 L524.9688,346.7031 Q524.3438,346.125 523.75,345.8594 Q523.1563,345.5781 522.5313,345.5781 Q521.1875,345.5781 520.5,346.6563 Q519.8125,347.7188 519.8125,349.8125 Q519.8125,351.9063 520.5,352.9844 Q521.1875,354.0469 522.5313,354.0469 Q523.1563,354.0469 523.75,353.7813 Q524.3438,353.5 524.9688,352.9219 L524.9688,355.6406 Z " fill="#000000"/><text fill="#000000" font-family="sans-serif" font-size="14" lengthAdjust="spacing" textLength="105.2796" x="536" y="355.432">GatewayFactory</text><line style="stroke:#181818;stroke-width:0.5;" x1="508" x2="643.2796" y1="366" y2="366"/><line style="stroke:#181818;stroke-width:0.5;" x1="508" x2="643.2796" y1="374" y2="374"/></g><!--class TunnelGateway--><g class="entity" data-qualified-name="TunnelGateway" data-source-line="13" id="ent0016"><rect fill="#F1F1F1" height="124.2717" rx="2.5" ry="2.5" style="stroke:#181818;stroke-width:0.5;" width="595.6859" x="321.5" y="647"/><ellipse cx="563.9721" cy="663" fill="#ADD1B2" rx="11" ry="11" style="stroke:#181818;stroke-width:1;"/><path d="M566.9409,668.6406 Q566.3628,668.9375 565.7221,669.0781 Q565.0815,669.2344 564.3784,669.2344 Q561.8784,669.2344 560.5503,667.5938 Q559.2378,665.9375 559.2378,662.8125 Q559.2378,659.6875 560.5503,658.0313 Q561.8784,656.375 564.3784,656.375 Q565.0815,656.375 565.7221,656.5313 Q566.3784,656.6875 566.9409,656.9844 L566.9409,659.7031 Q566.3159,659.125 565.7221,658.8594 Q565.1284,658.5781 564.5034,658.5781 Q563.1596,658.5781 562.4721,659.6563 Q561.7846,660.7188 561.7846,662.8125 Q561.7846,664.9063 562.4721,665.9844 Q563.1596,667.0469 564.5034,667.0469 Q565.1284,667.0469 565.7221,666.7813 Q566.3159,666.5 566.9409,665.9219 L566.9409,668.6406 Z " fill="#000000"/><text fill="#000000" font-family="sans-serif" font-size="14" lengthAdjust="spacing" textLength="102.2416" x="584.4721" y="668.432">TunnelGateway</text><line style="stroke:#181818;stroke-width:0.5;" x1="322.5" x2="916.1859" y1="679" y2="679"/><g data-visibility-modifier="PROTECTED_FIELD"><polygon fill="none" points="332.5,689.034,336.5,693.034,332.5,697.034,328.5,693.034" style="stroke:#B38D22;stroke-width:1;"/></g><text fill="#000000" font-family="sans-serif" font-size="14" lengthAdjust="spacing" textLength="110.7115" x="341.5" y="697.9659">TunnelPtr tunnel</text><g data-visibility-modifier="PROTECTED_FIELD"><polygon fill="none" points="332.5,708.1019,336.5,712.1019,332.5,716.1019,328.5,712.1019" style="stroke:#B38D22;stroke-width:1;"/></g><text fill="#000000" font-family="sans-serif" font-size="14" lengthAdjust="spacing" textLength="200.4372" x="341.5" y="717.0339">Socket multicastReceiveSocket</text><g data-visibility-modifier="PROTECTED_FIELD"><polygon fill="none" points="332.5,727.1698,336.5,731.1698,332.5,735.1698,328.5,731.1698" style="stroke:#B38D22;stroke-width:1;"/></g><text fill="#000000" font-family="sans-serif" font-size="14" lengthAdjust="spacing" textLength="388.4145" x="341.5" y="736.1018">std::map&lt;NodeId, RemoteNodeSurrogate*&gt; remote_nodes</text><g data-visibility-modifier="PROTECTED_FIELD"><polygon fill="none" points="332.5,746.2377,336.5,750.2377,332.5,754.2377,328.5,750.2377" style="stroke:#B38D22;stroke-width:1;"/></g><text fill="#000000" font-family="sans-serif" font-size="14" lengthAdjust="spacing" textLength="569.6859" x="341.5" y="755.1697">std::map&lt;NodeId, RemoteMeasurementSurrogate*&gt; remote_measurement_endpoints</text><line style="stroke:#181818;stroke-width:0.5;" x1="322.5" x2="916.1859" y1="763.2717" y2="763.2717"/></g><!--class ShmTunnel--><g class="entity" data-qualified-name="ShmTunnel" data-source-line="15" id="ent0019"><rect fill="#F1F1F1" height="48" rx="2.5" ry="2.5" style="stroke:#181818;stroke-width:0.5;" width="106.6757" x="180" y="685"/><ellipse cx="195" cy="701" fill="#ADD1B2" rx="11" ry="11" style="stroke:#181818;stroke-width:1;"/><path d="M197.9688,706.6406 Q197.3906,706.9375 196.75,707.0781 Q196.1094,707.2344 195.4063,707.2344 Q192.9063,707.2344 191.5781,705.5938 Q190.2656,703.9375 190.2656,700.8125 Q190.2656,697.6875 191.5781,696.0313 Q192.9063,694.375 195.4063,694.375 Q196.1094,694.375 196.75,694.5313 Q197.4063,694.6875 197.9688,694.9844 L197.9688,697.7031 Q197.3438,697.125 196.75,696.8594 Q196.1563,696.5781 195.5313,696.5781 Q194.1875,696.5781 193.5,697.6563 Q192.8125,698.7188 192.8125,700.8125 Q192.8125,702.9063 193.5,703.9844 Q194.1875,705.0469 195.5313,705.0469 Q196.1563,705.0469 196.75,704.7813 Q197.3438,704.5 197.9688,703.9219 L197.9688,706.6406 Z " fill="#000000"/><text fill="#000000" font-family="sans-serif" font-size="14" lengthAdjust="spacing" textLength="74.6757" x="209" y="706.432">ShmTunnel</text><line style="stroke:#181818;stroke-width:0.5;" x1="181" x2="285.6757" y1="717" y2="717"/><line style="stroke:#181818;stroke-width:0.5;" x1="181" x2="285.6757" y1="725" y2="725"/></g><!--class UdpTunnel--><g class="entity" data-qualified-name="UdpTunnel" data-source-line="16" id="ent0021"><rect fill="#F1F1F1" height="48" rx="2.5" ry="2.5" style="stroke:#181818;stroke-width:0.5;" width="104.7017" x="103" y="801"/><ellipse cx="118" cy="817" fill="#ADD1B2" rx="11" ry="11" style="stroke:#181818;stroke-width:1;"/><path d="M120.9688,822.6406 Q120.3906,822.9375 119.75,823.0781 Q119.1094,823.2344 118.4063,823.2344 Q115.9063,823.2344 114.5781,821.5938 Q113.2656,819.9375 113.2656,816.8125 Q113.2656,813.6875 114.5781,812.0313 Q115.9063,810.375 118.4063,810.375 Q119.1094,810.375 119.75,810.5313 Q120.4063,810.6875 120.9688,810.9844 L120.9688,813.7031 Q120.3438,813.125 119.75,812.8594 Q119.1563,812.5781 118.5313,812.5781 Q117.1875,812.5781 116.5,813.6563 Q115.8125,814.7188 115.8125,816.8125 Q115.8125,818.9063 116.5,819.9844 Q117.1875,821.0469 118.5313,821.0469 Q119.1563,821.0469 119.75,820.7813 Q120.3438,820.5 120.9688,819.9219 L120.9688,822.6406 Z " fill="#000000"/><text fill="#000000" font-family="sans-serif" font-size="14" lengthAdjust="spacing" textLength="72.7017" x="132" y="822.432">UdpTunnel</text><line style="stroke:#181818;stroke-width:0.5;" x1="104" x2="206.7017" y1="833" y2="833"/><line style="stroke:#181818;stroke-width:0.5;" x1="104" x2="206.7017" y1="841" y2="841"/></g><!--class RemoteNodeSurrogate--><g class="entity" data-qualified-name="RemoteNodeSurrogate" data-source-line="18" id="ent0024"><rect fill="#F1F1F1" height="86.1358" rx="2.5" ry="2.5" style="stroke:#181818;stroke-width:0.5;" width="208.8113" x="232" y="879"/><ellipse cx="257.9331" cy="895" fill="#ADD1B2" rx="11" ry="11" style="stroke:#181818;stroke-width:1;"/><path d="M260.9019,900.6406 Q260.3238,900.9375 259.6831,901.0781 Q259.0425,901.2344 258.3394,901.2344 Q255.8394,901.2344 254.5113,899.5938 Q253.1988,897.9375 253.1988,894.8125 Q253.1988,891.6875 254.5113,890.0313 Q255.8394,888.375 258.3394,888.375 Q259.0425,888.375 259.6831,888.5313 Q260.3394,888.6875 260.9019,888.9844 L260.9019,891.7031 Q260.2769,891.125 259.6831,890.8594 Q259.0894,890.5781 258.4644,890.5781 Q257.1206,890.5781 256.4331,891.6563 Q255.7456,892.7188 255.7456,894.8125 Q255.7456,896.9063 256.4331,897.9844 Q257.1206,899.0469 258.4644,899.0469 Q259.0894,899.0469 259.6831,898.7813 Q260.2769,898.5 260.9019,897.9219 L260.9019,900.6406 Z " fill="#000000"/><text fill="#000000" font-family="sans-serif" font-size="14" lengthAdjust="spacing" textLength="152.5154" x="274.3627" y="900.432">RemoteNodeSurrogate</text><line style="stroke:#181818;stroke-width:0.5;" x1="233" x2="439.8113" y1="911" y2="911"/><g data-visibility-modifier="PUBLIC_FIELD"><ellipse cx="243" cy="926.034" fill="none" rx="3" ry="3" style="stroke:#038048;stroke-width:1;"/></g><text fill="#000000" font-family="sans-serif" font-size="14" lengthAdjust="spacing" textLength="122.8075" x="252" y="929.9659">Socket stateSocket</text><g data-visibility-modifier="PUBLIC_FIELD"><ellipse cx="243" cy="945.1019" fill="none" rx="3" ry="3" style="stroke:#038048;stroke-width:1;"/></g><text fill="#000000" font-family="sans-serif" font-size="14" lengthAdjust="spacing" textLength="182.8113" x="252" y="949.0339">Socket measurementSocket</text><line style="stroke:#181818;stroke-width:0.5;" x1="233" x2="439.8113" y1="957.1358" y2="957.1358"/></g><!--class RemoteMeasurementSurrogate--><g class="entity" data-qualified-name="RemoteMeasurementSurrogate" data-source-line="19" id="ent0026"><rect fill="#F1F1F1" height="67.0679" rx="2.5" ry="2.5" style="stroke:#181818;stroke-width:0.5;" width="241.0752" x="476" y="888.5"/><ellipse cx="491" cy="904.5" fill="#ADD1B2" rx="11" ry="11" style="stroke:#181818;stroke-width:1;"/><path d="M493.9688,910.1406 Q493.3906,910.4375 492.75,910.5781 Q492.1094,910.7344 491.4063,910.7344 Q488.9063,910.7344 487.5781,909.0938 Q486.2656,907.4375 486.2656,904.3125 Q486.2656,901.1875 487.5781,899.5313 Q488.9063,897.875 491.4063,897.875 Q492.1094,897.875 492.75,898.0313 Q493.4063,898.1875 493.9688,898.4844 L493.9688,901.2031 Q493.3438,900.625 492.75,900.3594 Q492.1563,900.0781 491.5313,900.0781 Q490.1875,900.0781 489.5,901.1563 Q488.8125,902.2188 488.8125,904.3125 Q488.8125,906.4063 489.5,907.4844 Q490.1875,908.5469 491.5313,908.5469 Q492.1563,908.5469 492.75,908.2813 Q493.3438,908 493.9688,907.4219 L493.9688,910.1406 Z " fill="#000000"/><text fill="#000000" font-family="sans-serif" font-size="14" lengthAdjust="spacing" textLength="209.0752" x="505" y="909.932">RemoteMeasurementSurrogate</text><line style="stroke:#181818;stroke-width:0.5;" x1="477" x2="716.0752" y1="920.5" y2="920.5"/><g data-visibility-modifier="PUBLIC_FIELD"><ellipse cx="487" cy="935.534" fill="none" rx="3" ry="3" style="stroke:#038048;stroke-width:1;"/></g><text fill="#000000" font-family="sans-serif" font-size="14" lengthAdjust="spacing" textLength="182.8113" x="496" y="939.4659">Socket measurementSocket</text><line style="stroke:#181818;stroke-width:0.5;" x1="477" x2="716.0752" y1="947.5679" y2="947.5679"/></g><!--class Socket--><g class="entity" data-qualified-name="Socket" data-source-line="20" id="ent0028"><rect fill="#F1F1F1" height="48" rx="2.5" ry="2.5" style="stroke:#181818;stroke-width:0.5;" width="75.3018" x="461" y="1026"/><ellipse cx="476" cy="1042" fill="#ADD1B2" rx="11" ry="11" style="stroke:#181818;stroke-width:1;"/><path d="M478.9688,1047.6406 Q478.3906,1047.9375 477.75,1048.0781 Q477.1094,1048.2344 476.4063,1048.2344 Q473.9063,1048.2344 472.5781,1046.5938 Q471.2656,1044.9375 471.2656,1041.8125 Q471.2656,1038.6875 472.5781,1037.0313 Q473.9063,1035.375 476.4063,1035.375 Q477.1094,1035.375 477.75,1035.5313 Q478.4063,1035.6875 478.9688,1035.9844 L478.9688,1038.7031 Q478.3438,1038.125 477.75,1037.8594 Q477.1563,1037.5781 476.5313,1037.5781 Q475.1875,1037.5781 474.5,1038.6563 Q473.8125,1039.7188 473.8125,1041.8125 Q473.8125,1043.9063 474.5,1044.9844 Q475.1875,1046.0469 476.5313,1046.0469 Q477.1563,1046.0469 477.75,1045.7813 Q478.3438,1045.5 478.9688,1044.9219 L478.9688,1047.6406 Z " fill="#000000"/><text fill="#000000" font-family="sans-serif" font-size="14" lengthAdjust="spacing" textLength="43.3018" x="490" y="1047.432">Socket</text><line style="stroke:#181818;stroke-width:0.5;" x1="462" x2="535.3018" y1="1058" y2="1058"/><line style="stroke:#181818;stroke-width:0.5;" x1="462" x2="535.3018" y1="1066" y2="1066"/></g><!--reverse link LinkExtender to Controller--><g class="link" data-entity-1="ent0003" data-entity-2="ent0004" data-link-type="composition" data-source-line="6" id="lnk5"><path codeLine="6" d="M480.5,67.22 C480.5,85.16 480.5,97.89 480.5,115.83" fill="none" id="LinkExtender-backto-Controller" style="stroke:#181818;stroke-width:1;"/><polygon fill="#181818" points="480.5,55.22,476.5,61.22,480.5,67.22,484.5,61.22,480.5,55.22" style="stroke:#181818;stroke-width:1;"/></g><!--reverse link Controller to Discovery--><g class="link" data-entity-1="ent0004" data-entity-2="ent0002" data-link-type="composition" data-source-line="7" id="lnk6"><path codeLine="7" d="M526.37,170.7466 C554.05,188.6866 582.11,206.89 609.77,224.83" fill="none" id="Controller-backto-Discovery" style="stroke:#181818;stroke-width:1;"/><polygon fill="#181818" points="516.3,164.22,519.1595,170.8399,526.37,170.7466,523.5105,164.1266,516.3,164.22" style="stroke:#181818;stroke-width:1;"/></g><!--reverse link Controller to LocalPeers--><g class="link" data-entity-1="ent0004" data-entity-2="ent0007" data-link-type="composition" data-source-line="8" id="lnk8"><path codeLine="8" d="M419.3471,143.6795 C307.4771,149.6495 55.5,171.25 55.5,248 C55.5,248 55.5,248 55.5,710 C55.5,778.33 57.09,859.08 57.96,897.9" fill="none" id="Controller-backto-LocalPeers" style="stroke:#181818;stroke-width:1;"/><polygon fill="#181818" points="431.33,143.04,425.1254,139.3654,419.3471,143.6795,425.5517,147.3541,431.33,143.04" style="stroke:#181818;stroke-width:1;"/></g><!--reverse link Controller to RemotePeers--><g class="link" data-entity-1="ent0004" data-entity-2="ent0009" data-link-type="composition" data-source-line="9" id="lnk10"><path codeLine="9" d="M541.7279,141.624 C665.9779,143.944 970.5,158.42 970.5,248 C970.5,248 970.5,248 970.5,710 C970.5,779.47 948.33,859.38 936.2,897.88" fill="none" id="Controller-backto-RemotePeers" style="stroke:#181818;stroke-width:1;"/><polygon fill="#181818" points="529.73,141.4,535.6543,145.5113,541.7279,141.624,535.8036,137.5127,529.73,141.4" style="stroke:#181818;stroke-width:1;"/></g><!--reverse link Controller to Tunnel--><g class="link" data-entity-1="ent0004" data-entity-2="ent0011" data-link-type="composition" data-source-line="10" id="lnk12"><path codeLine="10" d="M473.8635,175.8078 C463.4635,230.3778 439.22,357.59 422.95,442.94" fill="none" id="Controller-backto-Tunnel" style="stroke:#181818;stroke-width:1;"/><polygon fill="#181818" points="476.11,164.02,471.0575,169.1651,473.8635,175.8078,478.916,170.6628,476.11,164.02" style="stroke:#181818;stroke-width:1;"/></g><!--reverse link Controller to GatewayFactory--><g class="link" data-entity-1="ent0004" data-entity-2="ent0013" data-link-type="composition" data-source-line="11" id="lnk14"><path codeLine="11" d="M486.5054,176.0693 C491.5154,203.1193 499.53,236.88 516.5,273 C526.88,295.1 543.05,317.6 555.84,333.75" fill="none" id="Controller-backto-GatewayFactory" style="stroke:#181818;stroke-width:1;"/><polygon fill="#181818" points="484.32,164.27,481.4796,170.8981,486.5054,176.0693,489.3458,169.4412,484.32,164.27" style="stroke:#181818;stroke-width:1;"/></g><!--link GatewayFactory to Tunnel--><g class="link" data-entity-1="ent0013" data-entity-2="ent0011" data-link-type="dependency" data-source-line="12" id="lnk15"><path codeLine="12" d="M550.65,382.13 C533.19,398.38 513.2318,416.9519 489.6618,438.8919" fill="none" id="GatewayFactory-to-Tunnel" style="stroke:#181818;stroke-width:1;"/><polygon fill="#181818" points="485.27,442.98,494.583,439.7758,488.9298,439.5733,489.1323,433.9201,485.27,442.98" style="stroke:#181818;stroke-width:1;"/></g><!--link GatewayFactory to TunnelGateway--><g class="link" data-entity-1="ent0013" data-entity-2="ent0016" data-link-type="dependency" data-source-line="13" id="lnk17"><path codeLine="13" d="M578.42,382.17 C585.14,435.45 601.1198,562.1971 611.0298,640.8371" fill="none" id="GatewayFactory-to-TunnelGateway" style="stroke:#181818;stroke-width:1;"/><polygon fill="#181818" points="611.78,646.79,614.6234,637.3605,611.1549,641.8292,606.6861,638.3607,611.78,646.79" style="stroke:#181818;stroke-width:1;"/><text fill="#000000" font-family="sans-serif" font-size="13" lengthAdjust="spacing" textLength="36.959" x="604.5" y="519.897">builds</text></g><!--link Discovery to GatewayFactory--><g class="link" data-entity-1="ent0002" data-entity-2="ent0013" data-link-type="dependency" data-source-line="14" id="lnk18"><path codeLine="14" d="M630.31,273.22 C618.57,291.16 605.6735,310.8682 593.9435,328.8082" fill="none" id="Discovery-to-GatewayFactory" style="stroke:#181818;stroke-width:1;"/><polygon fill="#181818" points="590.66,333.83,598.9331,328.4863,593.3962,329.6452,592.2374,324.1083,590.66,333.83" style="stroke:#181818;stroke-width:1;"/><text fill="#000000" font-family="sans-serif" font-size="13" lengthAdjust="spacing" textLength="21.567" x="570.951" y="322.0418">1..*</text></g><!--reverse link Tunnel to ShmTunnel--><g class="link" data-entity-1="ent0011" data-entity-2="ent0019" data-link-type="extension" data-source-line="15" id="lnk20"><path codeLine="15" d="M332.8143,599.3746 C301.0343,634.1346 276.98,660.44 254.69,684.82" fill="none" id="Tunnel-backto-ShmTunnel" style="stroke:#181818;stroke-width:1;"/><polygon fill="none" points="344.96,586.09,328.3861,595.3261,337.2425,603.4232,344.96,586.09" style="stroke:#181818;stroke-width:1;"/></g><!--reverse link Tunnel to UdpTunnel--><g class="link" data-entity-1="ent0011" data-entity-2="ent0021" data-link-type="extension" data-source-line="16" id="lnk22"><path codeLine="16" d="M253.5009,566.9271 C212.0209,586.9571 187.29,607.5 162.5,647 C132.5,694.8 141.91,765.01 149.65,800.95" fill="none" id="Tunnel-backto-UdpTunnel" style="stroke:#181818;stroke-width:1;"/><polygon fill="none" points="269.71,559.1,250.8918,561.5241,256.1099,572.3302,269.71,559.1" style="stroke:#181818;stroke-width:1;"/></g><!--reverse link Tunnel to TunnelGateway--><g class="link" data-entity-1="ent0011" data-entity-2="ent0016" data-link-type="aggregation" data-source-line="17" id="lnk23"><path codeLine="17" d="M482.8895,594.3345 C503.9995,614.2945 518.92,627.59 540.93,646.94" fill="none" id="Tunnel-backto-TunnelGateway" style="stroke:#181818;stroke-width:1;"/><polygon fill="none" points="474.17,586.09,475.7816,593.1187,482.8895,594.3345,481.2779,587.3057,474.17,586.09" style="stroke:#181818;stroke-width:1;"/><text fill="#000000" font-family="sans-serif" font-size="13" lengthAdjust="spacing" textLength="21.567" x="509.1283" y="635.264">1..*</text></g><!--link TunnelGateway to Tunnel--><g class="link" data-entity-1="ent0016" data-entity-2="ent0011" data-link-type="dependency" data-source-line="23" id="lnk32"><path codeLine="23" d="M565.55,646.94 C545.41,627.59 526.5149,610.0357 504.0549,590.0757" fill="none" id="TunnelGateway-to-Tunnel" style="stroke:#181818;stroke-width:1;"/><polygon fill="#181818" points="499.57,586.09,503.6402,595.0585,503.3074,589.4114,508.9545,589.0786,499.57,586.09" style="stroke:#181818;stroke-width:1;"/></g><!--reverse link TunnelGateway to RemoteNodeSurrogate--><g class="link" data-entity-1="ent0016" data-entity-2="ent0024" data-link-type="composition" data-source-line="18" id="lnk25"><path codeLine="18" d="M528.0201,778.2034 C481.6601,812.7734 434.47,847.96 393.06,878.83" fill="none" id="TunnelGateway-backto-RemoteNodeSurrogate" style="stroke:#181818;stroke-width:1;"/><polygon fill="#181818" points="537.64,771.03,530.4389,771.4101,528.0201,778.2034,535.2212,777.8233,537.64,771.03" style="stroke:#181818;stroke-width:1;"/><text fill="#000000" font-family="sans-serif" font-size="13" lengthAdjust="spacing" textLength="21.567" x="379.7513" y="867.2164">1..*</text></g><!--reverse link TunnelGateway to RemoteMeasurementSurrogate--><g class="link" data-entity-1="ent0016" data-entity-2="ent0026" data-link-type="composition" data-source-line="19" id="lnk27"><path codeLine="19" d="M611.5485,782.9592 C607.3785,821.1792 603.48,856.99 600.07,888.21" fill="none" id="TunnelGateway-backto-RemoteMeasurementSurrogate" style="stroke:#181818;stroke-width:1;"/><polygon fill="#181818" points="612.85,771.03,608.2228,776.5608,611.5485,782.9592,616.1756,777.4285,612.85,771.03" style="stroke:#181818;stroke-width:1;"/><text fill="#000000" font-family="sans-serif" font-size="13" lengthAdjust="spacing" textLength="21.567" x="577.6914" y="876.4505">1..*</text></g><!--reverse link TunnelGateway to Socket--><g class="link" data-entity-1="ent0016" data-entity-2="ent0028" data-link-type="composition" data-source-line="20" id="lnk29"><path codeLine="20" d="M689.0281,780.2092 C735.7481,834.1292 777.34,904.29 734.5,965 C689.25,1029.14 590.48,1044.59 536.16,1048.13" fill="none" id="TunnelGateway-backto-Socket" style="stroke:#181818;stroke-width:1;"/><polygon fill="#181818" points="681.17,771.14,682.076,778.294,689.0281,780.2092,688.1221,773.0552,681.17,771.14" style="stroke:#181818;stroke-width:1;"/><text fill="#000000" font-family="sans-serif" font-size="13" lengthAdjust="spacing" textLength="21.84" x="666.1533" y="793.2299">1..1</text></g><!--link TunnelGateway to LocalPeers--><g class="link" data-entity-1="ent0016" data-entity-2="ent0007" data-link-type="dependency" data-source-line="21" id="lnk30"><path codeLine="21" d="M450.23,771.12 C423.2,781.02 395.56,791.23 369.5,801 C277.92,835.33 177.3074,874.4435 115.6974,898.5535" fill="none" id="TunnelGateway-to-LocalPeers" style="stroke:#181818;stroke-width:1;"/><polygon fill="#181818" points="110.11,900.74,119.9488,901.1851,114.7662,898.9179,117.0334,893.7353,110.11,900.74" style="stroke:#181818;stroke-width:1;"/><text fill="#000000" font-family="sans-serif" font-size="13" lengthAdjust="spacing" textLength="56.381" x="370.5" y="830.397">Observer</text></g><!--link TunnelGateway to RemotePeers--><g class="link" data-entity-1="ent0016" data-entity-2="ent0009" data-link-type="dependency" data-source-line="22" id="lnk31"><path codeLine="22" d="M748.49,771.23 C765.05,780.55 781.45,790.56 796.5,801 C838.75,830.3 877.5314,867.7543 902.5114,893.4943" fill="none" id="TunnelGateway-to-RemotePeers" style="stroke:#181818;stroke-width:1;"/><polygon fill="#181818" points="906.69,897.8,903.2926,888.5557,903.2078,894.2119,897.5516,894.1271,906.69,897.8" style="stroke:#181818;stroke-width:1;"/><text fill="#000000" font-family="sans-serif" font-size="13" lengthAdjust="spacing" textLength="56.381" x="854.5" y="830.397">Observer</text></g><!--reverse link UdpTunnel to Socket--><g class="link" data-entity-1="ent0021" data-entity-2="ent0028" data-link-type="composition" data-source-line="24" id="lnk33"><path codeLine="24" d="M161.3902,861.0194 C167.3902,891.8794 180.07,934.28 214.5,965 C285.29,1028.15 401.55,1043.91 460.98,1047.78" fill="none" id="UdpTunnel-backto-Socket" style="stroke:#181818;stroke-width:1;"/><polygon fill="#181818" points="159.1,849.24,156.3186,855.8931,161.3902,861.0194,164.1716,854.3663,159.1,849.24" style="stroke:#181818;stroke-width:1;"/><text fill="#000000" font-family="sans-serif" font-size="13" lengthAdjust="spacing" textLength="21.84" x="136.636" y="870.7898">1..2</text></g><!--reverse link RemoteNodeSurrogate to Socket--><g class="link" data-entity-1="ent0024" data-entity-2="ent0028" data-link-type="composition" data-source-line="26" id="lnk34"><path codeLine="26" d="M400.3636,972.6755 C426.2936,992.8355 446.83,1008.81 468.56,1025.71" fill="none" id="RemoteNodeSurrogate-backto-Socket" style="stroke:#181818;stroke-width:1;"/><polygon fill="#181818" points="390.89,965.31,393.1716,972.1506,400.3636,972.6755,398.082,965.8349,390.89,965.31" style="stroke:#181818;stroke-width:1;"/><text fill="#000000" font-family="sans-serif" font-size="13" lengthAdjust="spacing" textLength="21.84" x="376.6894" y="987.1841">1..2</text></g><!--reverse link RemoteMeasurementSurrogate to Socket--><g class="link" data-entity-1="ent0026" data-entity-2="ent0028" data-link-type="composition" data-source-line="27" id="lnk35"><path codeLine="27" d="M563.6418,965.2515 C546.5118,987.2715 531.73,1006.27 516.44,1025.93" fill="none" id="RemoteMeasurementSurrogate-backto-Socket" style="stroke:#181818;stroke-width:1;"/><polygon fill="#181818" points="571.01,955.78,564.1687,958.0597,563.6418,965.2515,570.4831,962.9718,571.01,955.78" style="stroke:#181818;stroke-width:1;"/><text fill="#000000" font-family="sans-serif" font-size="13" lengthAdjust="spacing" textLength="21.84" x="543.4449" y="977.5312">1..1</text></g><?plantuml-src XLHDJ-Cm4BtxLup21Ses4dkCgbxO3wt40g9mhbnxjaHrx6ZibAs0_uwJE4aJkI3bOBytN--D5RlBTSc95x3XOhSbKsbvRPGXs18U61EAMmi9toXqHcUPpAqmUwH3blteZWbm2_sDiPjSxtx-TwWb4ipcSxWssf5H2eaDnuOPiYR4ZH5StIEIdJ8FM1Y7KUgnqXhL5FtD7RxmmoykdF6DnbUOpvTTtaac4931figLjAmVkmbAhj9qbapxjAcmUFCZh9wBqECOVPBb63KU3CL6ZTbuZDaGrffnQoIkAYApzH5V1Vz5RYl20hKxbLF7NoLDwig87Re9NuiU5kHjkTjO9Ez79EveNPy71YjwKvefle-cO16vaR3JEYFAmWiFFLyPm9brCilsMAznCPfp2TlsO7sO_oxt9fVmpz0B9tb-KUSU8sjLUwGEBPEcAQ0MlBILybNE_Rt79Kxmz_5SdK_DU2rqxmXSQvd7MZ5GLChbWbltW0BpFGQDdQQ2bulQl3_oM-pbp9P03RhM7hQVfCMy7RABWLtxdq1fSkqi6pJ5jbWhkmmghFD8Ftg77bKDtAHWTE6lNrJu0000?></g></svg>