<?plantuml 1.2026.1?><svg xmlns="http://www.w3.org/2000/svg" xmlns:xlink="http://www.w3.org/1999/xlink" contentStyleType="text/css" data-diagram-type="SEQUENCE" height="1327px" preserveAspectRatio="none" style="width:1132px;height:1327px;background:#ADD8E6;" version="1.1" viewBox="0 0 1132 1327" width="1132px" zoomAndPan="magnify"><defs/><g><rect fill="#ADD8E6" height="1327" style="stroke:none;stroke-width:1;" width="1132" x="0" y="0"/><g><title>AbletonLink1</title><rect fill="#000000" fill-opacity="0.00000" height="1213.8865" width="8" x="47.6618" y="57.0679"/><line style="stroke:#181818;stroke-width:0.5;stroke-dasharray:5,5;" x1="51.1618" x2="51.1618" y1="57.0679" y2="1270.9544"/></g><g><title>LAN</title><rect fill="#000000" fill-opacity="0.00000" height="1213.8865" width="8" x="154.2846" y="57.0679"/><line style="stroke:#181818;stroke-width:0.5;stroke-dasharray:5,5;" x1="157.7846" x2="157.7846" y1="57.0679" y2="1270.9544"/></g><g><title/><rect fill="#FFFFFF" height="31.706" style="stroke:#181818;stroke-width:1;" width="10" x="152.7846" y="88.7739"/></g><g><title/><rect fill="#FFFFFF" height="31.706" style="stroke:#181818;stroke-width:1;" width="10" x="152.7846" y="1221.2484"/></g><g><title>TunnelGateway1</title><rect fill="#000000" fill-opacity="0.00000" height="1213.8865" width="8" x="306.8703" y="57.0679"/><line style="stroke:#181818;stroke-width:0.5;stroke-dasharray:5,5;" x1="310.3703" x2="310.3703" y1="57.0679" y2="1270.9544"/></g><g><title/><rect fill="#FFFFFF" height="121.118" style="stroke:#181818;stroke-width:1;" width="10" x="305.3703" y="120.4799"/></g><g><title/><rect fill="#FFFFFF" height="165.8241" style="stroke:#181818;stroke-width:1;" width="10" x="305.3703" y="1055.4243"/></g><g><title>Tunnel</title><rect fill="#000000" fill-opacity="0.00000" height="1213.8865" width="8" x="468.619" y="57.0679"/><line style="stroke:#181818;stroke-width:0.5;stroke-dasharray:5,5;" x1="472.119" x2="472.119" y1="57.0679" y2="1270.9544"/></g><g><title/><rect fill="#FFFFFF" height="176.5301" style="stroke:#181818;stroke-width:1;" width="10" x="467.119" y="241.598"/></g><g><title/><rect fill="#FFD700" height="255.2361" style="stroke:#181818;stroke-width:1;" width="10" x="467.119" y="800.1882"/></g><g><title/><rect fill="#FFD700" height="31.706" style="stroke:#181818;stroke-width:1;" width="10" x="472.119" y="386.4221"/></g><g><title/><rect fill="#FFFFFF" height="121.118" style="stroke:#181818;stroke-width:1;" width="10" x="472.119" y="934.3063"/></g><g><title>TunnelGateway2</title><rect fill="#000000" fill-opacity="0.00000" height="1213.8865" width="8" x="630.3677" y="57.0679"/><line style="stroke:#181818;stroke-width:0.5;stroke-dasharray:5,5;" x1="633.8677" x2="633.8677" y1="57.0679" y2="1270.9544"/></g><g><title/><rect fill="#FFD700" height="121.118" style="stroke:#181818;stroke-width:1;" width="10" x="628.8677" y="418.1281"/></g><g><title/><rect fill="#FFD700" height="165.8241" style="stroke:#181818;stroke-width:1;" width="10" x="628.8677" y="634.3642"/></g><g><title>LAN2</title><rect fill="#000000" fill-opacity="0.00000" height="1213.8865" width="8" x="786.9574" y="57.0679"/><line style="stroke:#181818;stroke-width:0.5;stroke-dasharray:5,5;" x1="790.4574" x2="790.4574" y1="57.0679" y2="1270.9544"/></g><g><title/><rect fill="#FFD700" height="31.706" style="stroke:#181818;stroke-width:1;" width="10" x="785.4574" y="539.2461"/></g><g><title/><rect fill="#FFD700" height="31.706" style="stroke:#181818;stroke-width:1;" width="10" x="785.4574" y="602.6582"/></g><g><title>AbletonLink2</title><rect fill="#000000" fill-opacity="0.00000" height="1213.8865" width="8" x="897.5841" y="57.0679"/><line style="stroke:#181818;stroke-width:0.5;stroke-dasharray:5,5;" x1="901.0841" x2="901.0841" y1="57.0679" y2="1270.9544"/></g><g><title/><rect fill="#FFD700" height="31.706" style="stroke:#181818;stroke-width:1;" width="10" x="896.0841" y="570.9521"/></g><text fill="#000000" font-family="sans-serif" font-size="14" lengthAdjust="spacing" textLength="86.3237" x="5" y="52.9659">AbletonLink1</text><ellipse cx="51.1618" cy="10" fill="#E2E2F0" rx="4.5" ry="4.5" style="stroke:#181818;stroke-width:0.5;"/><path d="M38.6618,16.5 L38.6618,21.5 L48.1618,21.5 L48.1618,23.7574 L38.6618,33.2574 L42.9045,37.5 L51.1618,29.2426 L59.4192,37.5 L63.6618,33.2574 L54.1618,23.7574 L54.1618,21.5 L63.6618,21.5 L63.6618,16.5 L38.6618,16.5" fill="#E2E2F0" style="stroke:#181818;stroke-width:0.5;"/><rect fill="#E2E2F0" height="33.0679" rx="2.5" ry="2.5" style="stroke:#181818;stroke-width:0.5;" width="40.9219" x="137.3237" y="23"/><text fill="#000000" font-family="sans-serif" font-size="14" lengthAdjust="spacing" textLength="26.9219" x="144.3237" y="44.9659">LAN</text><rect fill="#E2E2F0" height="33.0679" rx="2.5" ry="2.5" style="stroke:#181818;stroke-width:0.5;" width="124.2495" x="248.2455" y="23"/><text fill="#000000" font-family="sans-serif" font-size="14" lengthAdjust="spacing" textLength="110.2495" x="255.2455" y="44.9659">TunnelGateway1</text><rect fill="#E2E2F0" height="33.0679" rx="2.5" ry="2.5" style="stroke:#181818;stroke-width:0.5;" width="59.2478" x="442.4951" y="23"/><text fill="#000000" font-family="sans-serif" font-size="14" lengthAdjust="spacing" textLength="45.2478" x="449.4951" y="44.9659">Tunnel</text><rect fill="#E2E2F0" height="33.0679" rx="2.5" ry="2.5" style="stroke:#181818;stroke-width:0.5;" width="124.2495" x="571.7429" y="23"/><text fill="#000000" font-family="sans-serif" font-size="14" lengthAdjust="spacing" textLength="110.2495" x="578.7429" y="44.9659">TunnelGateway2</text><rect fill="#E2E2F0" height="33.0679" rx="2.5" ry="2.5" style="stroke:#181818;stroke-width:0.5;" width="48.9299" x="765.9924" y="23"/><text fill="#000000" font-family="sans-serif" font-size="14" lengthAdjust="spacing" textLength="34.9299" x="772.9924" y="44.9659">LAN2</text><text fill="#000000" font-family="sans-serif" font-size="14" lengthAdjust="spacing" textLength="86.3237" x="854.9223" y="52.9659">AbletonLink2</text><ellipse cx="901.0841" cy="10" fill="#E2E2F0" rx="4.5" ry="4.5" style="stroke:#181818;stroke-width:0.5;"/><path d="M888.5841,16.5 L888.5841,21.5 L898.0841,21.5 L898.0841,23.7574 L888.5841,33.2574 L892.8268,37.5 L901.0841,29.2426 L909.3415,37.5 L913.5841,33.2574 L904.0841,23.7574 L904.0841,21.5 L913.5841,21.5 L913.5841,16.5 L888.5841,16.5" fill="#E2E2F0" style="stroke:#181818;stroke-width:0.5;"/><text fill="#000000" font-family="sans-serif" font-size="14" lengthAdjust="spacing" textLength="86.3237" x="5" y="1318.9204">AbletonLink1</text><ellipse cx="51.1618" cy="1275.9544" fill="#E2E2F0" rx="4.5" ry="4.5" style="stroke:#181818;stroke-width:0.5;"/><path d="M38.6618,1282.4544 L38.6618,1287.4544 L48.1618,1287.4544 L48.1618,1289.7118 L38.6618,1299.2118 L42.9045,1303.4544 L51.1618,1295.1971 L59.4192,1303.4544 L63.6618,1299.2118 L54.1618,1289.7118 L54.1618,1287.4544 L63.6618,1287.4544 L63.6618,1282.4544 L38.6618,1282.4544" fill="#E2E2F0" style="stroke:#181818;stroke-width:0.5;"/><rect fill="#E2E2F0" height="33.0679" rx="2.5" ry="2.5" style="stroke:#181818;stroke-width:0.5;" width="40.9219" x="137.3237" y="1270.9544"/><text fill="#000000" font-family="sans-serif" font-size="14" lengthAdjust="spacing" textLength="26.9219" x="144.3237" y="1292.9204">LAN</text><rect fill="#E2E2F0" height="33.0679" rx="2.5" ry="2.5" style="stroke:#181818;stroke-width:0.5;" width="124.2495" x="248.2455" y="1270.9544"/><text fill="#000000" font-family="sans-serif" font-size="14" lengthAdjust="spacing" textLength="110.2495" x="255.2455" y="1292.9204">TunnelGateway1</text><rect fill="#E2E2F0" height="33.0679" rx="2.5" ry="2.5" style="stroke:#181818;stroke-width:0.5;" width="59.2478" x="442.4951" y="1270.9544"/><text fill="#000000" font-family="sans-serif" font-size="14" lengthAdjust="spacing" textLength="45.2478" x="449.4951" y="1292.9204">Tunnel</text><rect fill="#E2E2F0" height="33.0679" rx="2.5" ry="2.5" style="stroke:#181818;stroke-width:0.5;" width="124.2495" x="571.7429" y="1270.9544"/><text fill="#000000" font-family="sans-serif" font-size="14" lengthAdjust="spacing" textLength="110.2495" x="578.7429" y="1292.9204">TunnelGateway2</text><rect fill="#E2E2F0" height="33.0679" rx="2.5" ry="2.5" style="stroke:#181818;stroke-width:0.5;" width="48.9299" x="765.9924" y="1270.9544"/><text fill="#000000" font-family="sans-serif" font-size="14" lengthAdjust="spacing" textLength="34.9299" x="772.9924" y="1292.9204">LAN2</text><text fill="#000000" font-family="sans-serif" font-size="14" lengthAdjust="spacing" textLength="86.3237" x="854.9223" y="1318.9204">AbletonLink2</text><ellipse cx="901.0841" cy="1275.9544" fill="#E2E2F0" rx="4.5" ry="4.5" style="stroke:#181818;stroke-width:0.5;"/><path d="M888.5841,1282.4544 L888.5841,1287.4544 L898.0841,1287.4544 L898.0841,1289.7118 L888.5841,1299.2118 L892.8268,1303.4544 L901.0841,1295.1971 L909.3415,1303.4544 L913.5841,1299.2118 L904.0841,1289.7118 L904.0841,1287.4544 L913.5841,1287.4544 L913.5841,1282.4544 L888.5841,1282.4544" fill="#E2E2F0" style="stroke:#181818;stroke-width:0.5;"/><polygon fill="#181818" points="140.7846,84.7739,150.7846,88.7739,140.7846,92.7739,144.7846,88.7739" style="stroke:#181818;stroke-width:1;"/><line style="stroke:#181818;stroke-width:1;" x1="51.1618" x2="146.7846" y1="88.7739" y2="88.7739"/><text fill="#000000" font-family="sans-serif" font-size="13" lengthAdjust="spacing" textLength="185.6011" x="58.1618" y="82.9649">broadcast PeerState(NodeID1)</text><polygon fill="#181818" points="293.3703,116.4799,303.3703,120.4799,293.3703,124.4799,297.3703,120.4799" style="stroke:#181818;stroke-width:1;"/><line style="stroke:#181818;stroke-width:1;" x1="162.7846" x2="299.3703" y1="120.4799" y2="120.4799"/><text fill="#000000" font-family="sans-serif" font-size="13" lengthAdjust="spacing" textLength="185.6011" x="169.7846" y="114.6709">broadcast PeerState(NodeID1)</text><line style="stroke:#181818;stroke-width:1;" x1="315.3703" x2="357.3703" y1="152.186" y2="152.186"/><line style="stroke:#181818;stroke-width:1;" x1="357.3703" x2="357.3703" y1="152.186" y2="165.186"/><line style="stroke:#181818;stroke-width:1;" x1="316.3703" x2="357.3703" y1="165.186" y2="165.186"/><polygon fill="#181818" points="326.3703,161.186,316.3703,165.186,326.3703,169.186,322.3703,165.186" style="stroke:#181818;stroke-width:1;"/><text fill="#000000" font-family="sans-serif" font-size="13" lengthAdjust="spacing" textLength="309.1922" x="322.3703" y="146.377">store NodeID1 state &amp; measurement UdpEndpoint</text><path d="M643.5625,133.4799 L643.5625,160.4799 L944.5625,160.4799 L944.5625,143.4799 L934.5625,133.4799 L643.5625,133.4799" fill="#FFFFE0" style="stroke:#181818;stroke-width:0.5;"/><path d="M934.5625,133.4799 L934.5625,143.4799 L944.5625,143.4799 L934.5625,133.4799" fill="#FFFFE0" style="stroke:#181818;stroke-width:0.5;"/><text fill="#000000" font-family="sans-serif" font-size="13" lengthAdjust="spacing" textLength="280.7873" x="649.5625" y="152.377">an UdpEndpoint is the combination of IP+port</text><line style="stroke:#181818;stroke-width:1;" x1="315.3703" x2="357.3703" y1="196.892" y2="196.892"/><line style="stroke:#181818;stroke-width:1;" x1="357.3703" x2="357.3703" y1="196.892" y2="209.892"/><line style="stroke:#181818;stroke-width:1;" x1="316.3703" x2="357.3703" y1="209.892" y2="209.892"/><polygon fill="#181818" points="326.3703,205.892,316.3703,209.892,326.3703,213.892,322.3703,209.892" style="stroke:#181818;stroke-width:1;"/><text fill="#000000" font-family="sans-serif" font-size="13" lengthAdjust="spacing" textLength="480.0514" x="322.3703" y="191.083">remove measurement UdpEndpoint from PeerState message, leave NodeState</text><polygon fill="#181818" points="455.119,237.598,465.119,241.598,455.119,245.598,459.119,241.598" style="stroke:#181818;stroke-width:1;"/><line style="stroke:#181818;stroke-width:1;" x1="315.3703" x2="461.119" y1="241.598" y2="241.598"/><text fill="#000000" font-family="sans-serif" font-size="13" lengthAdjust="spacing" textLength="190.7751" x="322.3703" y="235.789">broadcast NodeState(NodeID1)</text><line style="stroke:#181818;stroke-width:1;" x1="477.119" x2="519.119" y1="273.304" y2="273.304"/><line style="stroke:#181818;stroke-width:1;" x1="519.119" x2="519.119" y1="273.304" y2="286.304"/><line style="stroke:#181818;stroke-width:1;" x1="478.119" x2="519.119" y1="286.304" y2="286.304"/><polygon fill="#181818" points="488.119,282.304,478.119,286.304,488.119,290.304,484.119,286.304" style="stroke:#181818;stroke-width:1;"/><text fill="#000000" font-family="sans-serif" font-size="13" lengthAdjust="spacing" textLength="187.5901" x="484.119" y="267.495">store NodeID1 TunnelGateway</text><path d="M84.1598,254.598 L84.1598,299.598 L466.1598,299.598 L466.1598,264.598 L456.1598,254.598 L84.1598,254.598" fill="#FFFFE0" style="stroke:#181818;stroke-width:0.5;"/><path d="M456.1598,254.598 L456.1598,264.598 L466.1598,264.598 L456.1598,254.598" fill="#FFFFE0" style="stroke:#181818;stroke-width:0.5;"/><text fill="#000000" font-family="sans-serif" font-size="13" lengthAdjust="spacing" textLength="341.8092" x="90.1598" y="273.495">We store the first TunnelGateway we see the NodeID on</text><text fill="#000000" font-family="sans-serif" font-size="13" lengthAdjust="spacing" textLength="361.9592" x="90.1598" y="291.201">We also store the last time we saw a message from NodeID</text><line style="stroke:#181818;stroke-width:1;" x1="477.119" x2="519.119" y1="328.716" y2="328.716"/><line style="stroke:#181818;stroke-width:1;" x1="519.119" x2="519.119" y1="328.716" y2="341.716"/><line style="stroke:#181818;stroke-width:1;" x1="478.119" x2="519.119" y1="341.716" y2="341.716"/><polygon fill="#181818" points="488.119,337.716,478.119,341.716,488.119,345.716,484.119,341.716" style="stroke:#181818;stroke-width:1;"/><text fill="#000000" font-family="sans-serif" font-size="13" lengthAdjust="spacing" textLength="268.8922" x="484.119" y="322.907">filter unique broadcast NodeState(NodeID1)</text><line style="stroke:#181818;stroke-width:1;" x1="477.119" x2="524.119" y1="373.4221" y2="373.4221"/><line style="stroke:#181818;stroke-width:1;" x1="524.119" x2="524.119" y1="373.4221" y2="386.4221"/><line style="stroke:#181818;stroke-width:1;" x1="483.119" x2="524.119" y1="386.4221" y2="386.4221"/><polygon fill="#181818" points="493.119,382.4221,483.119,386.4221,493.119,390.4221,489.119,386.4221" style="stroke:#181818;stroke-width:1;"/><text fill="#000000" font-family="sans-serif" font-size="13" lengthAdjust="spacing" textLength="267.9822" x="489.119" y="367.6131">encapsulate broadcast NodeState(NodeID1)</text><polygon fill="#181818" points="616.8677,414.1281,626.8677,418.1281,616.8677,422.1281,620.8677,418.1281" style="stroke:#181818;stroke-width:1;"/><line style="stroke:#181818;stroke-width:1;" x1="482.119" x2="622.8677" y1="418.1281" y2="418.1281"/><text fill="#000000" font-family="sans-serif" font-size="13" lengthAdjust="spacing" textLength="294.6452" x="489.119" y="412.3191">decapsulate and broadcast NodeState(NodeID1)</text><line style="stroke:#181818;stroke-width:1;" x1="638.8677" x2="680.8677" y1="449.8341" y2="449.8341"/><line style="stroke:#181818;stroke-width:1;" x1="680.8677" x2="680.8677" y1="449.8341" y2="462.8341"/><line style="stroke:#181818;stroke-width:1;" x1="639.8677" x2="680.8677" y1="462.8341" y2="462.8341"/><polygon fill="#181818" points="649.8677,458.8341,639.8677,462.8341,649.8677,466.8341,645.8677,462.8341" style="stroke:#181818;stroke-width:1;"/><text fill="#000000" font-family="sans-serif" font-size="13" lengthAdjust="spacing" textLength="314.3532" x="645.8677" y="444.0251">create/retrieve RemoteNodeSurrogate for NodeID1</text><path d="M73.2424,431.1281 L73.2424,458.1281 L628.2424,458.1281 L628.2424,441.1281 L618.2424,431.1281 L73.2424,431.1281" fill="#FFFFE0" style="stroke:#181818;stroke-width:0.5;"/><path d="M618.2424,431.1281 L618.2424,441.1281 L628.2424,441.1281 L618.2424,431.1281" fill="#FFFFE0" style="stroke:#181818;stroke-width:0.5;"/><text fill="#000000" font-family="sans-serif" font-size="13" lengthAdjust="spacing" textLength="534.6253" x="79.2424" y="450.0251">RemoteNodeSurrogate is a proxy for the NodeID, with broadcast and unicast endpoints</text><line style="stroke:#181818;stroke-width:1;" x1="638.8677" x2="680.8677" y1="494.5401" y2="494.5401"/><line style="stroke:#181818;stroke-width:1;" x1="680.8677" x2="680.8677" y1="494.5401" y2="507.5401"/><line style="stroke:#181818;stroke-width:1;" x1="639.8677" x2="680.8677" y1="507.5401" y2="507.5401"/><polygon fill="#181818" points="649.8677,503.5401,639.8677,507.5401,649.8677,511.5401,645.8677,507.5401" style="stroke:#181818;stroke-width:1;"/><text fill="#000000" font-family="sans-serif" font-size="13" lengthAdjust="spacing" textLength="456.4433" x="645.8677" y="488.7311">append measurement endpoint from RemoteNodeSurrogate to NodeState</text><polygon fill="#181818" points="773.4574,535.2461,783.4574,539.2461,773.4574,543.2461,777.4574,539.2461" style="stroke:#181818;stroke-width:1;"/><line style="stroke:#181818;stroke-width:1;" x1="638.8677" x2="779.4574" y1="539.2461" y2="539.2461"/><text fill="#000000" font-family="sans-serif" font-size="13" lengthAdjust="spacing" textLength="185.6011" x="645.8677" y="533.4371">broadcast PeerState(NodeID1)</text><polygon fill="#181818" points="884.0841,566.9521,894.0841,570.9521,884.0841,574.9521,888.0841,570.9521" style="stroke:#181818;stroke-width:1;"/><line style="stroke:#181818;stroke-width:1;" x1="795.4574" x2="890.0841" y1="570.9521" y2="570.9521"/><text fill="#000000" font-family="sans-serif" font-size="13" lengthAdjust="spacing" textLength="168.1941" x="802.4574" y="565.1431">receive PeerState(NodeID1)</text><polygon fill="#181818" points="806.4574,598.6582,796.4574,602.6582,806.4574,606.6582,802.4574,602.6582" style="stroke:#181818;stroke-width:1;"/><line style="stroke:#181818;stroke-width:1;stroke-dasharray:2,2;" x1="800.4574" x2="895.0841" y1="602.6582" y2="602.6582"/><text fill="#000000" font-family="sans-serif" font-size="13" lengthAdjust="spacing" textLength="168.5061" x="812.4574" y="596.8492">unicast PeerState(NodeID2)</text><polygon fill="#181818" points="649.8677,630.3642,639.8677,634.3642,649.8677,638.3642,645.8677,634.3642" style="stroke:#181818;stroke-width:1;"/><line style="stroke:#181818;stroke-width:1;stroke-dasharray:2,2;" x1="643.8677" x2="784.4574" y1="634.3642" y2="634.3642"/><text fill="#000000" font-family="sans-serif" font-size="13" lengthAdjust="spacing" textLength="346.5022" x="655.8677" y="628.5552">receive PeerState(NodeID2) at UdpEndpoint for NodeID1</text><line style="stroke:#181818;stroke-width:1;stroke-dasharray:2,2;" x1="638.8677" x2="680.8677" y1="666.0702" y2="666.0702"/><line style="stroke:#181818;stroke-width:1;stroke-dasharray:2,2;" x1="680.8677" x2="680.8677" y1="666.0702" y2="679.0702"/><line style="stroke:#181818;stroke-width:1;stroke-dasharray:2,2;" x1="639.8677" x2="680.8677" y1="679.0702" y2="679.0702"/><polygon fill="#181818" points="649.8677,675.0702,639.8677,679.0702,649.8677,683.0702,645.8677,679.0702" style="stroke:#181818;stroke-width:1;"/><text fill="#000000" font-family="sans-serif" font-size="13" lengthAdjust="spacing" textLength="204.9972" x="645.8677" y="660.2612">lookup NodeID1 for UdpEndpoint</text><line style="stroke:#181818;stroke-width:1;stroke-dasharray:2,2;" x1="638.8677" x2="680.8677" y1="710.7762" y2="710.7762"/><line style="stroke:#181818;stroke-width:1;stroke-dasharray:2,2;" x1="680.8677" x2="680.8677" y1="710.7762" y2="723.7762"/><line style="stroke:#181818;stroke-width:1;stroke-dasharray:2,2;" x1="639.8677" x2="680.8677" y1="723.7762" y2="723.7762"/><polygon fill="#181818" points="649.8677,719.7762,639.8677,723.7762,649.8677,727.7762,645.8677,723.7762" style="stroke:#181818;stroke-width:1;"/><text fill="#000000" font-family="sans-serif" font-size="13" lengthAdjust="spacing" textLength="173.3422" x="645.8677" y="704.9672">store NodeID2 UdpEndpoint</text><line style="stroke:#181818;stroke-width:1;stroke-dasharray:2,2;" x1="638.8677" x2="680.8677" y1="755.4822" y2="755.4822"/><line style="stroke:#181818;stroke-width:1;stroke-dasharray:2,2;" x1="680.8677" x2="680.8677" y1="755.4822" y2="768.4822"/><line style="stroke:#181818;stroke-width:1;stroke-dasharray:2,2;" x1="639.8677" x2="680.8677" y1="768.4822" y2="768.4822"/><polygon fill="#181818" points="649.8677,764.4822,639.8677,768.4822,649.8677,772.4822,645.8677,768.4822" style="stroke:#181818;stroke-width:1;"/><text fill="#000000" font-family="sans-serif" font-size="13" lengthAdjust="spacing" textLength="480.0514" x="645.8677" y="749.6732">remove measurement UdpEndpoint from PeerState message, leave NodeState</text><polygon fill="#181818" points="488.119,796.1882,478.119,800.1882,488.119,804.1882,484.119,800.1882" style="stroke:#181818;stroke-width:1;"/><line style="stroke:#181818;stroke-width:1;stroke-dasharray:2,2;" x1="482.119" x2="627.8677" y1="800.1882" y2="800.1882"/><text fill="#000000" font-family="sans-serif" font-size="13" lengthAdjust="spacing" textLength="247.4032" x="494.119" y="794.3792">unicast NodeState(NodeID2) to NodeID1</text><line style="stroke:#181818;stroke-width:1;stroke-dasharray:2,2;" x1="477.119" x2="519.119" y1="831.8943" y2="831.8943"/><line style="stroke:#181818;stroke-width:1;stroke-dasharray:2,2;" x1="519.119" x2="519.119" y1="831.8943" y2="844.8943"/><line style="stroke:#181818;stroke-width:1;stroke-dasharray:2,2;" x1="478.119" x2="519.119" y1="844.8943" y2="844.8943"/><polygon fill="#181818" points="488.119,840.8943,478.119,844.8943,488.119,848.8943,484.119,844.8943" style="stroke:#181818;stroke-width:1;"/><text fill="#000000" font-family="sans-serif" font-size="13" lengthAdjust="spacing" textLength="187.5901" x="484.119" y="826.0853">store NodeID2 TunnelGateway</text><line style="stroke:#181818;stroke-width:1;stroke-dasharray:2,2;" x1="477.119" x2="519.119" y1="876.6003" y2="876.6003"/><line style="stroke:#181818;stroke-width:1;stroke-dasharray:2,2;" x1="519.119" x2="519.119" y1="876.6003" y2="889.6003"/><line style="stroke:#181818;stroke-width:1;stroke-dasharray:2,2;" x1="478.119" x2="519.119" y1="889.6003" y2="889.6003"/><polygon fill="#181818" points="488.119,885.6003,478.119,889.6003,488.119,893.6003,484.119,889.6003" style="stroke:#181818;stroke-width:1;"/><text fill="#000000" font-family="sans-serif" font-size="13" lengthAdjust="spacing" textLength="278.2652" x="484.119" y="870.7913">filter unique NodeState(NodeID2) to NodeID1</text><line style="stroke:#181818;stroke-width:1;stroke-dasharray:2,2;" x1="477.119" x2="524.119" y1="921.3063" y2="921.3063"/><line style="stroke:#181818;stroke-width:1;stroke-dasharray:2,2;" x1="524.119" x2="524.119" y1="921.3063" y2="934.3063"/><line style="stroke:#181818;stroke-width:1;stroke-dasharray:2,2;" x1="483.119" x2="524.119" y1="934.3063" y2="934.3063"/><polygon fill="#181818" points="493.119,930.3063,483.119,934.3063,493.119,938.3063,489.119,934.3063" style="stroke:#181818;stroke-width:1;"/><text fill="#000000" font-family="sans-serif" font-size="13" lengthAdjust="spacing" textLength="324.6102" x="489.119" y="915.4973">encapsulate unicast NodeState(NodeID2) to NodeID1</text><line style="stroke:#181818;stroke-width:1;stroke-dasharray:2,2;" x1="482.119" x2="524.119" y1="966.0123" y2="966.0123"/><line style="stroke:#181818;stroke-width:1;stroke-dasharray:2,2;" x1="524.119" x2="524.119" y1="966.0123" y2="979.0123"/><line style="stroke:#181818;stroke-width:1;stroke-dasharray:2,2;" x1="483.119" x2="524.119" y1="979.0123" y2="979.0123"/><polygon fill="#181818" points="493.119,975.0123,483.119,979.0123,493.119,983.0123,489.119,979.0123" style="stroke:#181818;stroke-width:1;"/><text fill="#000000" font-family="sans-serif" font-size="13" lengthAdjust="spacing" textLength="277.3162" x="489.119" y="960.2033">decapsulate NodeState(NodeID2) to NodeID1</text><line style="stroke:#181818;stroke-width:1;stroke-dasharray:2,2;" x1="482.119" x2="524.119" y1="1010.7183" y2="1010.7183"/><line style="stroke:#181818;stroke-width:1;stroke-dasharray:2,2;" x1="524.119" x2="524.119" y1="1010.7183" y2="1023.7183"/><line style="stroke:#181818;stroke-width:1;stroke-dasharray:2,2;" x1="483.119" x2="524.119" y1="1023.7183" y2="1023.7183"/><polygon fill="#181818" points="493.119,1019.7183,483.119,1023.7183,493.119,1027.7183,489.119,1023.7183" style="stroke:#181818;stroke-width:1;"/><text fill="#000000" font-family="sans-serif" font-size="13" lengthAdjust="spacing" textLength="201.0452" x="489.119" y="1004.9093">find TunnelGateway for NodeID1</text><polygon fill="#181818" points="326.3703,1051.4243,316.3703,1055.4243,326.3703,1059.4243,322.3703,1055.4243" style="stroke:#181818;stroke-width:1;"/><line style="stroke:#181818;stroke-width:1;stroke-dasharray:2,2;" x1="320.3703" x2="471.119" y1="1055.4243" y2="1055.4243"/><text fill="#000000" font-family="sans-serif" font-size="13" lengthAdjust="spacing" textLength="280.3712" x="332.3703" y="1049.6153">send unicast NodeState(NodeID2) to NodeID1</text><line style="stroke:#181818;stroke-width:1;stroke-dasharray:2,2;" x1="315.3703" x2="357.3703" y1="1087.1304" y2="1087.1304"/><line style="stroke:#181818;stroke-width:1;stroke-dasharray:2,2;" x1="357.3703" x2="357.3703" y1="1087.1304" y2="1100.1304"/><line style="stroke:#181818;stroke-width:1;stroke-dasharray:2,2;" x1="316.3703" x2="357.3703" y1="1100.1304" y2="1100.1304"/><polygon fill="#181818" points="326.3703,1096.1304,316.3703,1100.1304,326.3703,1104.1304,322.3703,1100.1304" style="stroke:#181818;stroke-width:1;"/><text fill="#000000" font-family="sans-serif" font-size="13" lengthAdjust="spacing" textLength="161.3042" x="322.3703" y="1081.3214">find Endpoint for NodeID1</text><line style="stroke:#181818;stroke-width:1;stroke-dasharray:2,2;" x1="315.3703" x2="357.3703" y1="1131.8364" y2="1131.8364"/><line style="stroke:#181818;stroke-width:1;stroke-dasharray:2,2;" x1="357.3703" x2="357.3703" y1="1131.8364" y2="1144.8364"/><line style="stroke:#181818;stroke-width:1;stroke-dasharray:2,2;" x1="316.3703" x2="357.3703" y1="1144.8364" y2="1144.8364"/><polygon fill="#181818" points="326.3703,1140.8364,316.3703,1144.8364,326.3703,1148.8364,322.3703,1144.8364" style="stroke:#181818;stroke-width:1;"/><text fill="#000000" font-family="sans-serif" font-size="13" lengthAdjust="spacing" textLength="314.3532" x="322.3703" y="1126.0274">create/retrieve RemoteNodeSurrogate for NodeID2</text><line style="stroke:#181818;stroke-width:1;stroke-dasharray:2,2;" x1="315.3703" x2="357.3703" y1="1176.5424" y2="1176.5424"/><line style="stroke:#181818;stroke-width:1;stroke-dasharray:2,2;" x1="357.3703" x2="357.3703" y1="1176.5424" y2="1189.5424"/><line style="stroke:#181818;stroke-width:1;stroke-dasharray:2,2;" x1="316.3703" x2="357.3703" y1="1189.5424" y2="1189.5424"/><polygon fill="#181818" points="326.3703,1185.5424,316.3703,1189.5424,326.3703,1193.5424,322.3703,1189.5424" style="stroke:#181818;stroke-width:1;"/><text fill="#000000" font-family="sans-serif" font-size="13" lengthAdjust="spacing" textLength="456.4433" x="322.3703" y="1170.7334">append measurement endpoint from RemoteNodeSurrogate to NodeState</text><polygon fill="#181818" points="173.7846,1217.2484,163.7846,1221.2484,173.7846,1225.2484,169.7846,1221.2484" style="stroke:#181818;stroke-width:1;"/><line style="stroke:#181818;stroke-width:1;stroke-dasharray:2,2;" x1="167.7846" x2="304.3703" y1="1221.2484" y2="1221.2484"/><text fill="#000000" font-family="sans-serif" font-size="13" lengthAdjust="spacing" textLength="242.2292" x="179.7846" y="1215.4394">unicast PeerState(NodeID2) to NodeID1</text><polygon fill="#181818" points="62.1618,1248.9544,52.1618,1252.9544,62.1618,1256.9544,58.1618,1252.9544" style="stroke:#181818;stroke-width:1;"/><line style="stroke:#181818;stroke-width:1;stroke-dasharray:2,2;" x1="56.1618" x2="151.7846" y1="1252.9544" y2="1252.9544"/><text fill="#000000" font-family="sans-serif" font-size="13" lengthAdjust="spacing" textLength="168.1941" x="68.1618" y="1247.1454">receive PeerState(NodeID2)</text><?plantuml-src pLPDRnit4BtlhvYYG5N7ZXIfoCM706aJj0RIGAXTvD8BjPoL2EsIMv9hLVtrdU5-YFiXMmOQ81VRkplpPkQzuQFTNkbIM560IBsnz_wO8_ncyjmS4jTzsuXqlxMcql8NaniBkThk_2QlC8fnEo7DGUajP29tyHTjFFuyXN34K2VvhhHYMmZmQFu5RmcsVUFmxmfrYh-ZSsABzwNGTS09VIsiLwcYBtujfEG6VdgJ98jPyWeUTWY-qXfpI2dJOehgaLxHQoSAX8qrGgR2UJ0Q2g6FeBH7cuaK7MJM5AVGpqRYtOSvWG9yGT284hmXs7HN0pw4EhyAZmTn1E6SIHKzI3WelmiH9QATkGOf03sCyXZNzO7lrelIM3y96M5DDfNpRD6K6OYG0tSVE50y6YM9P1re6zEI55NkLKahuLM1RfvGfIyxr26qqeh4cK8dSELQjYLn6k8D_R3W55MdIDz9SmEXV-KvAJFs8Aoivn1vtgV7CVyVQRe1QmT5aQb5UbnKfQHVG79_rB8q96YDJyWHPU7FK-ifZys2pvkjENqAs9w7tY1J5NQ5EslXkQcM5n54fj5TQNGjPA_G3Oqverocd5ia3aEH9iwLcAfCfHtsDxjl3_K2d1WYSZh1XPOrKyrOPvKFJHteOrylseDQJDceANlgyV8sE85jqWDv9xgpEvzgi9Mmjs6CiTVce67DI1t2eY5XdimMmKiORbQWS9N5WaPpCzW9iX8HJeRbVjw-WO8AAOSfQr-d1bU5zviSlT6VbDulaoH-WjVluDFxpt1z3RVHqd4tzvuc_x5cV7cLS1G5z-IZzDVFPoR3d17ABJXgivLtIKzyX7w0Q63uKvQjG0axEbYsy5iMBlh4sZ6fgIasIWklI1pYvcvzpNHUqWcLCqJicTArAtT3KbYu66uWHvQ31mWVpbOAZCM4TIaZmgAa8K4zz9gE73DYWuvg7SaaPCfIWO5LiObWx4H6_wKfZIvD4-K6v-RT2XdYG9lMp5fJq9p4gLOpbTCQZ_rvOj9HDctJzrkJIuAXUrUKhigPvXU1DAEkwkLiuIIUuDWWdeIKTA2zUkJO6dEmnAk9QhVj3M3HMuMq3N_GAdaCy9MrPijmR2HDcLYtgL1QPV9pQ_uv3YwFczeGJnFmFAtPO7ijNDAnA4k-2U9bnzwcJ_L5ldLcprUDdGoeVzeTHXQrIcg8TxsNVSZsNwafm47ML4SjMSFqrLLJ-vbbEbT-TGLYu1UHtYF42KLoO_PLsHrqJe-TxnA8s2fMByx-6luNbug8FEamF8B4OxDbp5jtmiyPucfWY5FnVLTwkk0uFznoiIDTrlbK8x4HlJmxKtHU-vO-Nh6nijrD7VxpkwpvvqnmELMcwV3v_J-J_J8FNLs4-J-xtB8rbPRJysuIqradz4oDaPvqa-G_?></g></svg>