<?plantuml 1.2026.1?><svg xmlns="http://www.w3.org/2000/svg" xmlns:xlink="http://www.w3.org/1999/xlink" contentStyleType="text/css" data-diagram-type="SEQUENCE" height="1837px" preserveAspectRatio="none" style="width:1396px;height:1837px;background:#FFFFFF;" version="1.1" viewBox="0 0 1396 1837" width="1396px" zoomAndPan="magnify"><defs/><g><rect fill="#B0E0E6" height="1825.881" style="stroke:#181818;stroke-width:0.5;" width="459.8731" x="106.5166" y="6"/><text fill="#000000" font-family="sans-serif" font-size="13" font-weight="bold" lengthAdjust="spacing" textLength="35.269" x="318.8186" y="19.897">Site 1</text><rect fill="#FAFAD2" height="1825.881" style="stroke:#181818;stroke-width:0.5;" width="467.8811" x="578.3897" y="6"/><text fill="#000000" font-family="sans-serif" font-size="13" font-weight="bold" lengthAdjust="spacing" textLength="35.269" x="794.6957" y="19.897">Site 2</text><g><title>AbletonLink1</title><rect fill="#000000" fill-opacity="0.00000" height="1691.9033" width="8" x="50.8547" y="80.8419"/><line style="stroke:#181818;stroke-width:0.5;stroke-dasharray:5,5;" x1="54.3547" x2="54.3547" y1="80.8419" y2="1772.7452"/></g><g><title>LAN</title><rect fill="#000000" fill-opacity="0.00000" height="1691.9033" width="8" x="157.4775" y="80.8419"/><line style="stroke:#181818;stroke-width:0.5;stroke-dasharray:5,5;" x1="160.9775" x2="160.9775" y1="80.8419" y2="1772.7452"/></g><g><title/><rect fill="#FFFFFF" height="31.706" style="stroke:#181818;stroke-width:1;" width="10" x="155.9775" y="322.784"/></g><g><title/><rect fill="#FFFFFF" height="31.706" style="stroke:#181818;stroke-width:1;" width="10" x="155.9775" y="1562.9066"/></g><g><title>TunnelGateway1</title><rect fill="#000000" fill-opacity="0.00000" height="1691.9033" width="8" x="310.0632" y="80.8419"/><line style="stroke:#181818;stroke-width:0.5;stroke-dasharray:5,5;" x1="313.5632" x2="313.5632" y1="80.8419" y2="1772.7452"/></g><g><title/><rect fill="#FFFFFF" height="155.5301" style="stroke:#181818;stroke-width:1;" width="10" x="308.5632" y="354.49"/></g><g><title/><rect fill="#FFFFFF" height="189.5301" style="stroke:#181818;stroke-width:1;" width="10" x="308.5632" y="1373.3765"/></g><g><title>UdpTunnel</title><rect fill="#000000" fill-opacity="0.00000" height="1691.9033" width="8" x="485.5389" y="80.8419"/><line style="stroke:#181818;stroke-width:0.5;stroke-dasharray:5,5;" x1="489.0389" x2="489.0389" y1="80.8419" y2="1772.7452"/></g><g><title/><rect fill="#FFFFFF" height="167.2361" style="stroke:#181818;stroke-width:1;" width="10" x="484.0389" y="510.0201"/></g><g><title/><rect fill="#FFFFFF" height="76.412" style="stroke:#181818;stroke-width:1;" width="10" x="484.0389" y="1296.9645"/></g><g><title/><rect fill="#FFD700" height="49.412" style="stroke:#181818;stroke-width:1;" width="10" x="489.0389" y="627.8441"/></g><g><title>UdpTunnel</title><rect fill="#000000" fill-opacity="0.00000" height="1691.9033" width="8" x="652.2406" y="80.8419"/><line style="stroke:#181818;stroke-width:0.5;stroke-dasharray:5,5;" x1="655.7406" x2="655.7406" y1="80.8419" y2="1772.7452"/></g><g><title/><rect fill="#FFD700" height="87.118" style="stroke:#181818;stroke-width:1;" width="10" x="650.7406" y="677.2562"/></g><g><title/><rect fill="#FFD700" height="138.8241" style="stroke:#181818;stroke-width:1;" width="10" x="650.7406" y="1158.1404"/></g><g><title/><rect fill="#FFFFFF" height="49.412" style="stroke:#181818;stroke-width:1;" width="10" x="655.7406" y="1247.5524"/></g><g><title>TunnelGateway2</title><rect fill="#000000" fill-opacity="0.00000" height="1691.9033" width="8" x="827.7162" y="80.8419"/><line style="stroke:#181818;stroke-width:0.5;stroke-dasharray:5,5;" x1="831.2162" x2="831.2162" y1="80.8419" y2="1772.7452"/></g><g><title/><rect fill="#FFD700" height="131.8241" style="stroke:#181818;stroke-width:1;" width="10" x="826.2162" y="764.3742"/></g><g><title/><rect fill="#FFD700" height="121.118" style="stroke:#181818;stroke-width:1;" width="10" x="826.2162" y="1037.0223"/></g><g><title>LAN2</title><rect fill="#000000" fill-opacity="0.00000" height="1691.9033" width="8" x="984.3059" y="80.8419"/><line style="stroke:#181818;stroke-width:0.5;stroke-dasharray:5,5;" x1="987.8059" x2="987.8059" y1="80.8419" y2="1772.7452"/></g><g><title/><rect fill="#FFD700" height="31.706" style="stroke:#181818;stroke-width:1;" width="10" x="982.8059" y="896.1983"/></g><g><title/><rect fill="#FFD700" height="31.706" style="stroke:#181818;stroke-width:1;" width="10" x="982.8059" y="1005.3163"/></g><g><title>AbletonLink2</title><rect fill="#000000" fill-opacity="0.00000" height="1691.9033" width="8" x="1104.9326" y="80.8419"/><line style="stroke:#181818;stroke-width:0.5;stroke-dasharray:5,5;" x1="1108.4326" x2="1108.4326" y1="80.8419" y2="1772.7452"/></g><g><title/><rect fill="#FFD700" height="77.412" style="stroke:#181818;stroke-width:1;" width="10" x="1103.4326" y="927.9043"/></g><text fill="#000000" font-family="sans-serif" font-size="14" lengthAdjust="spacing" textLength="86.3237" x="8.1929" y="76.7399">AbletonLink1</text><ellipse cx="54.3547" cy="33.7739" fill="#E2E2F0" rx="4.5" ry="4.5" style="stroke:#181818;stroke-width:0.5;"/><path d="M41.8547,40.2739 L41.8547,45.2739 L51.3547,45.2739 L51.3547,47.5313 L41.8547,57.0313 L46.0974,61.2739 L54.3547,53.0166 L62.6121,61.2739 L66.8547,57.0313 L57.3547,47.5313 L57.3547,45.2739 L66.8547,45.2739 L66.8547,40.2739 L41.8547,40.2739" fill="#E2E2F0" style="stroke:#181818;stroke-width:0.5;"/><rect fill="#E2E2F0" height="33.0679" rx="2.5" ry="2.5" style="stroke:#181818;stroke-width:0.5;" width="40.9219" x="140.5166" y="46.7739"/><text fill="#000000" font-family="sans-serif" font-size="14" lengthAdjust="spacing" textLength="26.9219" x="147.5166" y="68.7399">LAN</text><rect fill="#E2E2F0" height="33.0679" rx="2.5" ry="2.5" style="stroke:#181818;stroke-width:0.5;" width="124.2495" x="251.4385" y="46.7739"/><text fill="#000000" font-family="sans-serif" font-size="14" lengthAdjust="spacing" textLength="110.2495" x="258.4385" y="68.7399">TunnelGateway1</text><rect fill="#E2E2F0" height="52.1358" rx="2.5" ry="2.5" style="stroke:#181818;stroke-width:0.5;" width="86.7017" x="445.688" y="27.706"/><text fill="#000000" font-family="sans-serif" font-size="14" lengthAdjust="spacing" textLength="72.7017" x="452.688" y="49.672">UdpTunnel</text><text fill="#000000" font-family="sans-serif" font-size="14" lengthAdjust="spacing" textLength="43.3158" x="467.3809" y="68.7399">(site 1)</text><rect fill="#E2E2F0" height="52.1358" rx="2.5" ry="2.5" style="stroke:#181818;stroke-width:0.5;" width="86.7017" x="612.3897" y="27.706"/><text fill="#000000" font-family="sans-serif" font-size="14" lengthAdjust="spacing" textLength="72.7017" x="619.3897" y="49.672">UdpTunnel</text><text fill="#000000" font-family="sans-serif" font-size="14" lengthAdjust="spacing" textLength="43.3158" x="634.0826" y="68.7399">(site 2)</text><rect fill="#E2E2F0" height="33.0679" rx="2.5" ry="2.5" style="stroke:#181818;stroke-width:0.5;" width="124.2495" x="769.0914" y="46.7739"/><text fill="#000000" font-family="sans-serif" font-size="14" lengthAdjust="spacing" textLength="110.2495" x="776.0914" y="68.7399">TunnelGateway2</text><rect fill="#E2E2F0" height="33.0679" rx="2.5" ry="2.5" style="stroke:#181818;stroke-width:0.5;" width="48.9299" x="963.341" y="46.7739"/><text fill="#000000" font-family="sans-serif" font-size="14" lengthAdjust="spacing" textLength="34.9299" x="970.341" y="68.7399">LAN2</text><text fill="#000000" font-family="sans-serif" font-size="14" lengthAdjust="spacing" textLength="86.3237" x="1062.2708" y="76.7399">AbletonLink2</text><ellipse cx="1108.4326" cy="33.7739" fill="#E2E2F0" rx="4.5" ry="4.5" style="stroke:#181818;stroke-width:0.5;"/><path d="M1095.9326,40.2739 L1095.9326,45.2739 L1105.4326,45.2739 L1105.4326,47.5313 L1095.9326,57.0313 L1100.1753,61.2739 L1108.4326,53.0166 L1116.69,61.2739 L1120.9326,57.0313 L1111.4326,47.5313 L1111.4326,45.2739 L1120.9326,45.2739 L1120.9326,40.2739 L1095.9326,40.2739" fill="#E2E2F0" style="stroke:#181818;stroke-width:0.5;"/><text fill="#000000" font-family="sans-serif" font-size="14" lengthAdjust="spacing" textLength="86.3237" x="8.1929" y="1820.7111">AbletonLink1</text><ellipse cx="54.3547" cy="1777.7452" fill="#E2E2F0" rx="4.5" ry="4.5" style="stroke:#181818;stroke-width:0.5;"/><path d="M41.8547,1784.2452 L41.8547,1789.2452 L51.3547,1789.2452 L51.3547,1791.5026 L41.8547,1801.0026 L46.0974,1805.2452 L54.3547,1796.9878 L62.6121,1805.2452 L66.8547,1801.0026 L57.3547,1791.5026 L57.3547,1789.2452 L66.8547,1789.2452 L66.8547,1784.2452 L41.8547,1784.2452" fill="#E2E2F0" style="stroke:#181818;stroke-width:0.5;"/><rect fill="#E2E2F0" height="33.0679" rx="2.5" ry="2.5" style="stroke:#181818;stroke-width:0.5;" width="40.9219" x="140.5166" y="1772.7452"/><text fill="#000000" font-family="sans-serif" font-size="14" lengthAdjust="spacing" textLength="26.9219" x="147.5166" y="1794.7111">LAN</text><rect fill="#E2E2F0" height="33.0679" rx="2.5" ry="2.5" style="stroke:#181818;stroke-width:0.5;" width="124.2495" x="251.4385" y="1772.7452"/><text fill="#000000" font-family="sans-serif" font-size="14" lengthAdjust="spacing" textLength="110.2495" x="258.4385" y="1794.7111">TunnelGateway1</text><rect fill="#E2E2F0" height="52.1358" rx="2.5" ry="2.5" style="stroke:#181818;stroke-width:0.5;" width="86.7017" x="445.688" y="1772.7452"/><text fill="#000000" font-family="sans-serif" font-size="14" lengthAdjust="spacing" textLength="72.7017" x="452.688" y="1794.7111">UdpTunnel</text><text fill="#000000" font-family="sans-serif" font-size="14" lengthAdjust="spacing" textLength="43.3158" x="467.3809" y="1813.7791">(site 1)</text><rect fill="#E2E2F0" height="52.1358" rx="2.5" ry="2.5" style="stroke:#181818;stroke-width:0.5;" width="86.7017" x="612.3897" y="1772.7452"/><text fill="#000000" font-family="sans-serif" font-size="14" lengthAdjust="spacing" textLength="72.7017" x="619.3897" y="1794.7111">UdpTunnel</text><text fill="#000000" font-family="sans-serif" font-size="14" lengthAdjust="spacing" textLength="43.3158" x="634.0826" y="1813.7791">(site 2)</text><rect fill="#E2E2F0" height="33.0679" rx="2.5" ry="2.5" style="stroke:#181818;stroke-width:0.5;" width="124.2495" x="769.0914" y="1772.7452"/><text fill="#000000" font-family="sans-serif" font-size="14" lengthAdjust="spacing" textLength="110.2495" x="776.0914" y="1794.7111">TunnelGateway2</text><rect fill="#E2E2F0" height="33.0679" rx="2.5" ry="2.5" style="stroke:#181818;stroke-width:0.5;" width="48.9299" x="963.341" y="1772.7452"/><text fill="#000000" font-family="sans-serif" font-size="14" lengthAdjust="spacing" textLength="34.9299" x="970.341" y="1794.7111">LAN2</text><text fill="#000000" font-family="sans-serif" font-size="14" lengthAdjust="spacing" textLength="86.3237" x="1062.2708" y="1820.7111">AbletonLink2</text><ellipse cx="1108.4326" cy="1777.7452" fill="#E2E2F0" rx="4.5" ry="4.5" style="stroke:#181818;stroke-width:0.5;"/><path d="M1095.9326,1784.2452 L1095.9326,1789.2452 L1105.4326,1789.2452 L1105.4326,1791.5026 L1095.9326,1801.0026 L1100.1753,1805.2452 L1108.4326,1796.9878 L1116.69,1805.2452 L1120.9326,1801.0026 L1111.4326,1791.5026 L1111.4326,1789.2452 L1120.9326,1789.2452 L1120.9326,1784.2452 L1095.9326,1784.2452" fill="#E2E2F0" style="stroke:#181818;stroke-width:0.5;"/><rect fill="#EEEEEE" height="3" style="stroke:#EEEEEE;stroke-width:1;" width="1263.4395" x="5" y="110.6949"/><line style="stroke:#000000;stroke-width:1;" x1="5" x2="1268.4395" y1="110.6949" y2="110.6949"/><line style="stroke:#000000;stroke-width:1;" x1="5" x2="1268.4395" y1="113.6949" y2="113.6949"/><rect fill="#EEEEEE" height="25.706" style="stroke:#000000;stroke-width:2;" width="102.8161" x="585.3117" y="98.8419"/><text fill="#000000" font-family="sans-serif" font-size="13" font-weight="bold" lengthAdjust="spacing" textLength="85.4361" x="591.3117" y="116.7389">Tunnel Setup</text><polygon fill="#181818" points="643.7406,154.2539,653.7406,158.2539,643.7406,162.2539,647.7406,158.2539" style="stroke:#181818;stroke-width:1;"/><line style="stroke:#181818;stroke-width:1;" x1="489.0389" x2="649.7406" y1="158.2539" y2="158.2539"/><text fill="#000000" font-family="sans-serif" font-size="13" lengthAdjust="spacing" textLength="96.9411" x="496.0389" y="152.4449">TUNNEL_HELLO</text><polygon fill="#181818" points="500.0389,185.9599,490.0389,189.9599,500.0389,193.9599,496.0389,189.9599" style="stroke:#181818;stroke-width:1;"/><line style="stroke:#181818;stroke-width:1;" x1="494.0389" x2="654.7406" y1="189.9599" y2="189.9599"/><text fill="#000000" font-family="sans-serif" font-size="13" lengthAdjust="spacing" textLength="96.9411" x="506.0389" y="184.1509">TUNNEL_HELLO</text><path d="M347.0386,202.9599 L347.0386,247.9599 L797.0386,247.9599 L797.0386,212.9599 L787.0386,202.9599 L347.0386,202.9599" fill="#FFFFE0" style="stroke:#181818;stroke-width:0.5;"/><path d="M787.0386,202.9599 L787.0386,212.9599 L797.0386,212.9599 L787.0386,202.9599" fill="#FFFFE0" style="stroke:#181818;stroke-width:0.5;"/><text fill="#000000" font-family="sans-serif" font-size="13" lengthAdjust="spacing" textLength="427.5054" x="353.0386" y="221.8569">Both sides transition DISCONNECTED &#8594; CONNECTING &#8594; CONNECTED.</text><text fill="#000000" font-family="sans-serif" font-size="13" lengthAdjust="spacing" textLength="429.7023" x="353.0386" y="239.5629">Keepalive every 5 s; peer considered lost after 15 s without KEEPALIVE.</text><rect fill="#EEEEEE" height="3" style="stroke:#EEEEEE;stroke-width:1;" width="1263.4395" x="5" y="275.2249"/><line style="stroke:#000000;stroke-width:1;" x1="5" x2="1268.4395" y1="275.2249" y2="275.2249"/><line style="stroke:#000000;stroke-width:1;" x1="5" x2="1268.4395" y1="278.2249" y2="278.2249"/><rect fill="#EEEEEE" height="25.706" style="stroke:#000000;stroke-width:2;" width="199.2664" x="537.0865" y="263.3719"/><text fill="#000000" font-family="sans-serif" font-size="13" font-weight="bold" lengthAdjust="spacing" textLength="181.8864" x="543.0865" y="281.2689">Broadcast: NodeID1 &#8594; Site 2</text><polygon fill="#181818" points="143.9775,318.784,153.9775,322.784,143.9775,326.784,147.9775,322.784" style="stroke:#181818;stroke-width:1;"/><line style="stroke:#181818;stroke-width:1;" x1="54.3547" x2="149.9775" y1="322.784" y2="322.784"/><text fill="#000000" font-family="sans-serif" font-size="13" lengthAdjust="spacing" textLength="185.6011" x="61.3547" y="316.975">broadcast PeerState(NodeID1)</text><polygon fill="#181818" points="296.5632,350.49,306.5632,354.49,296.5632,358.49,300.5632,354.49" style="stroke:#181818;stroke-width:1;"/><line style="stroke:#181818;stroke-width:1;" x1="165.9775" x2="302.5632" y1="354.49" y2="354.49"/><text fill="#000000" font-family="sans-serif" font-size="13" lengthAdjust="spacing" textLength="185.6011" x="172.9775" y="348.681">broadcast PeerState(NodeID1)</text><path d="M323.5632,335.784 L323.5632,380.784 L626.5632,380.784 L626.5632,345.784 L616.5632,335.784 L323.5632,335.784" fill="#FFFFE0" style="stroke:#181818;stroke-width:0.5;"/><path d="M616.5632,335.784 L616.5632,345.784 L626.5632,345.784 L616.5632,335.784" fill="#FFFFE0" style="stroke:#181818;stroke-width:0.5;"/><text fill="#000000" font-family="sans-serif" font-size="13" lengthAdjust="spacing" textLength="240.3832" x="329.5632" y="354.681">One TunnelGateway per local interface.</text><text fill="#000000" font-family="sans-serif" font-size="13" lengthAdjust="spacing" textLength="282.8022" x="329.5632" y="372.387">All interfaces may receive the same broadcast.</text><line style="stroke:#181818;stroke-width:1;" x1="318.5632" x2="360.5632" y1="409.902" y2="409.902"/><line style="stroke:#181818;stroke-width:1;" x1="360.5632" x2="360.5632" y1="409.902" y2="422.902"/><line style="stroke:#181818;stroke-width:1;" x1="319.5632" x2="360.5632" y1="422.902" y2="422.902"/><polygon fill="#181818" points="329.5632,418.902,319.5632,422.902,329.5632,426.902,325.5632,422.902" style="stroke:#181818;stroke-width:1;"/><text fill="#000000" font-family="sans-serif" font-size="13" lengthAdjust="spacing" textLength="335.5172" x="325.5632" y="404.093">store NodeID1 stateEndpoint &amp; measurementEndpoint</text><path d="M673.0804,391.196 L673.0804,436.196 L993.0804,436.196 L993.0804,401.196 L983.0804,391.196 L673.0804,391.196" fill="#FFFFE0" style="stroke:#181818;stroke-width:0.5;"/><path d="M983.0804,391.196 L983.0804,401.196 L993.0804,401.196 L983.0804,391.196" fill="#FFFFE0" style="stroke:#181818;stroke-width:0.5;"/><text fill="#000000" font-family="sans-serif" font-size="13" lengthAdjust="spacing" textLength="268.7883" x="679.0804" y="410.093">stateEndpoint = source IP:port of the packet</text><text fill="#000000" font-family="sans-serif" font-size="13" lengthAdjust="spacing" textLength="299.4423" x="679.0804" y="427.799">measurementEndpoint = from PeerState payload</text><line style="stroke:#181818;stroke-width:1;" x1="318.5632" x2="360.5632" y1="465.314" y2="465.314"/><line style="stroke:#181818;stroke-width:1;" x1="360.5632" x2="360.5632" y1="465.314" y2="478.314"/><line style="stroke:#181818;stroke-width:1;" x1="319.5632" x2="360.5632" y1="478.314" y2="478.314"/><polygon fill="#181818" points="329.5632,474.314,319.5632,478.314,329.5632,482.314,325.5632,478.314" style="stroke:#181818;stroke-width:1;"/><text fill="#000000" font-family="sans-serif" font-size="13" lengthAdjust="spacing" textLength="388.8823" x="325.5632" y="459.505">strip measurement endpoint from PeerState &#8594; NodeState bytes</text><polygon fill="#181818" points="472.0389,506.0201,482.0389,510.0201,472.0389,514.0201,476.0389,510.0201" style="stroke:#181818;stroke-width:1;"/><line style="stroke:#181818;stroke-width:1;" x1="318.5632" x2="478.0389" y1="510.0201" y2="510.0201"/><text fill="#000000" font-family="sans-serif" font-size="13" lengthAdjust="spacing" textLength="300.3653" x="325.5632" y="504.2111">forward(BROADCAST, NodeID1, NodeState bytes)</text><line style="stroke:#181818;stroke-width:1;" x1="494.0389" x2="536.0389" y1="559.4321" y2="559.4321"/><line style="stroke:#181818;stroke-width:1;" x1="536.0389" x2="536.0389" y1="559.4321" y2="572.4321"/><line style="stroke:#181818;stroke-width:1;" x1="495.0389" x2="536.0389" y1="572.4321" y2="572.4321"/><polygon fill="#181818" points="505.0389,568.4321,495.0389,572.4321,505.0389,576.4321,501.0389,572.4321" style="stroke:#181818;stroke-width:1;"/><text fill="#000000" font-family="sans-serif" font-size="13" lengthAdjust="spacing" textLength="134.4331" x="501.0389" y="535.9171">isDuplicateBroadcast?</text><text fill="#000000" font-family="sans-serif" font-size="13" lengthAdjust="spacing" textLength="174.4342" x="501.0389" y="553.6231">(key: NodeID1 + hash(bytes))</text><path d="M692.473,523.0201 L692.473,586.0201 L1173.473,586.0201 L1173.473,533.0201 L1163.473,523.0201 L692.473,523.0201" fill="#FFFFE0" style="stroke:#181818;stroke-width:0.5;"/><path d="M1163.473,523.0201 L1163.473,533.0201 L1173.473,533.0201 L1163.473,523.0201" fill="#FFFFE0" style="stroke:#181818;stroke-width:0.5;"/><text fill="#000000" font-family="sans-serif" font-size="13" lengthAdjust="spacing" textLength="359.6713" x="698.473" y="541.9171">First gateway call &#8594; record {NodeID1: hash, now}, proceed.</text><text fill="#000000" font-family="sans-serif" font-size="13" lengthAdjust="spacing" textLength="460.7204" x="698.473" y="559.6231">Further gateway calls within 100 ms with the same hash &#8594; silently dropped.</text><text fill="#000000" font-family="sans-serif" font-size="13" lengthAdjust="spacing" textLength="341.3932" x="698.473" y="577.3291">A changed hash (different state) always passes through.</text><line style="stroke:#181818;stroke-width:1;" x1="494.0389" x2="541.0389" y1="614.8441" y2="614.8441"/><line style="stroke:#181818;stroke-width:1;" x1="541.0389" x2="541.0389" y1="614.8441" y2="627.8441"/><line style="stroke:#181818;stroke-width:1;" x1="500.0389" x2="541.0389" y1="627.8441" y2="627.8441"/><polygon fill="#181818" points="510.0389,623.8441,500.0389,627.8441,510.0389,631.8441,506.0389,627.8441" style="stroke:#181818;stroke-width:1;"/><text fill="#000000" font-family="sans-serif" font-size="13" lengthAdjust="spacing" textLength="282.3862" x="506.0389" y="609.0351">encapsulate BROADCAST NodeState(NodeID1)</text><polygon fill="#181818" points="638.7406,673.2562,648.7406,677.2562,638.7406,681.2562,642.7406,677.2562" style="stroke:#181818;stroke-width:1;"/><line style="stroke:#181818;stroke-width:1;" x1="499.0389" x2="644.7406" y1="677.2562" y2="677.2562"/><text fill="#000000" font-family="sans-serif" font-size="13" lengthAdjust="spacing" textLength="105.0564" x="506.0389" y="653.7411">&#9472;&#9472;&#9472; internet &#9472;&#9472;&#8594;</text><text fill="#000000" font-family="sans-serif" font-size="13" lengthAdjust="spacing" textLength="282.3472" x="506.0389" y="671.4472">decapsulate BROADCAST NodeState(NodeID1)</text><line style="stroke:#181818;stroke-width:1;" x1="660.7406" x2="702.7406" y1="708.9622" y2="708.9622"/><line style="stroke:#181818;stroke-width:1;" x1="702.7406" x2="702.7406" y1="708.9622" y2="721.9622"/><line style="stroke:#181818;stroke-width:1;" x1="661.7406" x2="702.7406" y1="721.9622" y2="721.9622"/><polygon fill="#181818" points="671.7406,717.9622,661.7406,721.9622,671.7406,725.9622,667.7406,721.9622" style="stroke:#181818;stroke-width:1;"/><text fill="#000000" font-family="sans-serif" font-size="13" lengthAdjust="spacing" textLength="303.0563" x="667.7406" y="703.1532">store NodeID1 &#8594; peer index (Tunnel1 connection)</text><path d="M388.1484,690.2562 L388.1484,735.2562 L650.1484,735.2562 L650.1484,700.2562 L640.1484,690.2562 L388.1484,690.2562" fill="#FFFFE0" style="stroke:#181818;stroke-width:0.5;"/><path d="M640.1484,690.2562 L640.1484,700.2562 L650.1484,700.2562 L640.1484,690.2562" fill="#FFFFE0" style="stroke:#181818;stroke-width:0.5;"/><text fill="#000000" font-family="sans-serif" font-size="13" lengthAdjust="spacing" textLength="168.5712" x="394.1484" y="709.1532">Used later to route unicasts</text><text fill="#000000" font-family="sans-serif" font-size="13" lengthAdjust="spacing" textLength="241.5922" x="394.1484" y="726.8592">addressed to NodeID1 back to Tunnel1.</text><polygon fill="#181818" points="814.2162,760.3742,824.2162,764.3742,814.2162,768.3742,818.2162,764.3742" style="stroke:#181818;stroke-width:1;"/><line style="stroke:#181818;stroke-width:1;" x1="660.7406" x2="820.2162" y1="764.3742" y2="764.3742"/><text fill="#000000" font-family="sans-serif" font-size="13" lengthAdjust="spacing" textLength="304.4862" x="667.7406" y="758.5652">forward_locally: BROADCAST NodeState(NodeID1)</text><line style="stroke:#181818;stroke-width:1;" x1="836.2162" x2="878.2162" y1="796.0802" y2="796.0802"/><line style="stroke:#181818;stroke-width:1;" x1="878.2162" x2="878.2162" y1="796.0802" y2="809.0802"/><line style="stroke:#181818;stroke-width:1;" x1="837.2162" x2="878.2162" y1="809.0802" y2="809.0802"/><polygon fill="#181818" points="847.2162,805.0802,837.2162,809.0802,847.2162,813.0802,843.2162,809.0802" style="stroke:#181818;stroke-width:1;"/><text fill="#000000" font-family="sans-serif" font-size="13" lengthAdjust="spacing" textLength="314.3532" x="843.2162" y="790.2712">create/retrieve RemoteNodeSurrogate for NodeID1</text><path d="M371.8348,777.3742 L371.8348,822.3742 L825.8348,822.3742 L825.8348,787.3742 L815.8348,777.3742 L371.8348,777.3742" fill="#FFFFE0" style="stroke:#181818;stroke-width:0.5;"/><path d="M815.8348,777.3742 L815.8348,787.3742 L825.8348,787.3742 L815.8348,777.3742" fill="#FFFFE0" style="stroke:#181818;stroke-width:0.5;"/><text fill="#000000" font-family="sans-serif" font-size="13" lengthAdjust="spacing" textLength="433.3813" x="377.8348" y="796.2712">RemoteNodeSurrogate holds a stateSocket and a measurementSocket,</text><text fill="#000000" font-family="sans-serif" font-size="13" lengthAdjust="spacing" textLength="203.7362" x="377.8348" y="813.9772">both bound to the local interface.</text><line style="stroke:#181818;stroke-width:1;" x1="836.2162" x2="878.2162" y1="851.4923" y2="851.4923"/><line style="stroke:#181818;stroke-width:1;" x1="878.2162" x2="878.2162" y1="851.4923" y2="864.4923"/><line style="stroke:#181818;stroke-width:1;" x1="837.2162" x2="878.2162" y1="864.4923" y2="864.4923"/><polygon fill="#181818" points="847.2162,860.4923,837.2162,864.4923,847.2162,868.4923,843.2162,864.4923" style="stroke:#181818;stroke-width:1;"/><text fill="#000000" font-family="sans-serif" font-size="13" lengthAdjust="spacing" textLength="418.2233" x="843.2162" y="845.6833">append surrogate measurementSocket endpoint to NodeState bytes</text><polygon fill="#181818" points="970.8059,892.1983,980.8059,896.1983,970.8059,900.1983,974.8059,896.1983" style="stroke:#181818;stroke-width:1;"/><line style="stroke:#181818;stroke-width:1;" x1="836.2162" x2="976.8059" y1="896.1983" y2="896.1983"/><text fill="#000000" font-family="sans-serif" font-size="13" lengthAdjust="spacing" textLength="356.2263" x="843.2162" y="890.3893">broadcast PeerState(NodeID1) from surrogate stateSocket</text><polygon fill="#181818" points="1091.4326,923.9043,1101.4326,927.9043,1091.4326,931.9043,1095.4326,927.9043" style="stroke:#181818;stroke-width:1;"/><line style="stroke:#181818;stroke-width:1;" x1="992.8059" x2="1097.4326" y1="927.9043" y2="927.9043"/><text fill="#000000" font-family="sans-serif" font-size="13" lengthAdjust="spacing" textLength="168.1941" x="999.8059" y="922.0953">receive PeerState(NodeID1)</text><rect fill="#EEEEEE" height="3" style="stroke:#EEEEEE;stroke-width:1;" width="1263.4395" x="5" y="957.7573"/><line style="stroke:#000000;stroke-width:1;" x1="5" x2="1268.4395" y1="957.7573" y2="957.7573"/><line style="stroke:#000000;stroke-width:1;" x1="5" x2="1268.4395" y1="960.7573" y2="960.7573"/><rect fill="#EEEEEE" height="25.706" style="stroke:#000000;stroke-width:2;" width="269.2715" x="502.084" y="945.9043"/><text fill="#000000" font-family="sans-serif" font-size="13" font-weight="bold" lengthAdjust="spacing" textLength="251.8915" x="508.084" y="963.8013">Unicast Response: NodeID2 &#8594; NodeID1</text><polygon fill="#181818" points="1003.8059,1001.3163,993.8059,1005.3163,1003.8059,1009.3163,999.8059,1005.3163" style="stroke:#181818;stroke-width:1;"/><line style="stroke:#181818;stroke-width:1;stroke-dasharray:2,2;" x1="997.8059" x2="1102.4326" y1="1005.3163" y2="1005.3163"/><text fill="#000000" font-family="sans-serif" font-size="13" lengthAdjust="spacing" textLength="379.6133" x="1009.8059" y="999.5073">unicast PeerState(NodeID2) to NodeID1 surrogate stateSocket</text><polygon fill="#181818" points="847.2162,1033.0223,837.2162,1037.0223,847.2162,1041.0223,843.2162,1037.0223" style="stroke:#181818;stroke-width:1;"/><line style="stroke:#181818;stroke-width:1;stroke-dasharray:2,2;" x1="841.2162" x2="981.8059" y1="1037.0223" y2="1037.0223"/><text fill="#000000" font-family="sans-serif" font-size="13" lengthAdjust="spacing" textLength="310.3362" x="853.2162" y="1031.2133">receive PeerState(NodeID2); to_node_id = NodeID1</text><line style="stroke:#181818;stroke-width:1;stroke-dasharray:2,2;" x1="836.2162" x2="878.2162" y1="1068.7284" y2="1068.7284"/><line style="stroke:#181818;stroke-width:1;stroke-dasharray:2,2;" x1="878.2162" x2="878.2162" y1="1068.7284" y2="1081.7284"/><line style="stroke:#181818;stroke-width:1;stroke-dasharray:2,2;" x1="837.2162" x2="878.2162" y1="1081.7284" y2="1081.7284"/><polygon fill="#181818" points="847.2162,1077.7284,837.2162,1081.7284,847.2162,1085.7284,843.2162,1081.7284" style="stroke:#181818;stroke-width:1;"/><text fill="#000000" font-family="sans-serif" font-size="13" lengthAdjust="spacing" textLength="335.5172" x="843.2162" y="1062.9194">store NodeID2 stateEndpoint &amp; measurementEndpoint</text><line style="stroke:#181818;stroke-width:1;stroke-dasharray:2,2;" x1="836.2162" x2="878.2162" y1="1113.4344" y2="1113.4344"/><line style="stroke:#181818;stroke-width:1;stroke-dasharray:2,2;" x1="878.2162" x2="878.2162" y1="1113.4344" y2="1126.4344"/><line style="stroke:#181818;stroke-width:1;stroke-dasharray:2,2;" x1="837.2162" x2="878.2162" y1="1126.4344" y2="1126.4344"/><polygon fill="#181818" points="847.2162,1122.4344,837.2162,1126.4344,847.2162,1130.4344,843.2162,1126.4344" style="stroke:#181818;stroke-width:1;"/><text fill="#000000" font-family="sans-serif" font-size="13" lengthAdjust="spacing" textLength="293.2153" x="843.2162" y="1107.6254">strip measurement endpoint &#8594; NodeState bytes</text><polygon fill="#181818" points="671.7406,1154.1404,661.7406,1158.1404,671.7406,1162.1404,667.7406,1158.1404" style="stroke:#181818;stroke-width:1;"/><line style="stroke:#181818;stroke-width:1;stroke-dasharray:2,2;" x1="665.7406" x2="825.2162" y1="1158.1404" y2="1158.1404"/><text fill="#000000" font-family="sans-serif" font-size="13" lengthAdjust="spacing" textLength="360.9323" x="677.7406" y="1152.3314">forward(UNICAST, NodeID2, NodeState bytes, to=NodeID1)</text><line style="stroke:#181818;stroke-width:1;stroke-dasharray:2,2;" x1="660.7406" x2="702.7406" y1="1189.8464" y2="1189.8464"/><line style="stroke:#181818;stroke-width:1;stroke-dasharray:2,2;" x1="702.7406" x2="702.7406" y1="1189.8464" y2="1202.8464"/><line style="stroke:#181818;stroke-width:1;stroke-dasharray:2,2;" x1="661.7406" x2="702.7406" y1="1202.8464" y2="1202.8464"/><polygon fill="#181818" points="671.7406,1198.8464,661.7406,1202.8464,671.7406,1206.8464,667.7406,1202.8464" style="stroke:#181818;stroke-width:1;"/><text fill="#000000" font-family="sans-serif" font-size="13" lengthAdjust="spacing" textLength="313.6252" x="667.7406" y="1184.0374">lookup NodeID1 &#8594; peer index (Tunnel1 connection)</text><line style="stroke:#181818;stroke-width:1;stroke-dasharray:2,2;" x1="660.7406" x2="707.7406" y1="1234.5524" y2="1234.5524"/><line style="stroke:#181818;stroke-width:1;stroke-dasharray:2,2;" x1="707.7406" x2="707.7406" y1="1234.5524" y2="1247.5524"/><line style="stroke:#181818;stroke-width:1;stroke-dasharray:2,2;" x1="666.7406" x2="707.7406" y1="1247.5524" y2="1247.5524"/><polygon fill="#181818" points="676.7406,1243.5524,666.7406,1247.5524,676.7406,1251.5524,672.7406,1247.5524" style="stroke:#181818;stroke-width:1;"/><text fill="#000000" font-family="sans-serif" font-size="13" lengthAdjust="spacing" textLength="335.4132" x="672.7406" y="1228.7434">encapsulate UNICAST NodeState(NodeID2) to NodeID1</text><polygon fill="#181818" points="505.0389,1292.9645,495.0389,1296.9645,505.0389,1300.9645,501.0389,1296.9645" style="stroke:#181818;stroke-width:1;"/><line style="stroke:#181818;stroke-width:1;stroke-dasharray:2,2;" x1="499.0389" x2="654.7406" y1="1296.9645" y2="1296.9645"/><text fill="#000000" font-family="sans-serif" font-size="13" lengthAdjust="spacing" textLength="105.0564" x="511.0389" y="1273.4494">&#8592;&#9472;&#9472; internet &#9472;&#9472;&#9472;</text><text fill="#000000" font-family="sans-serif" font-size="13" lengthAdjust="spacing" textLength="335.3742" x="511.0389" y="1291.1555">decapsulate UNICAST NodeState(NodeID2) to NodeID1</text><line style="stroke:#181818;stroke-width:1;stroke-dasharray:2,2;" x1="494.0389" x2="536.0389" y1="1328.6705" y2="1328.6705"/><line style="stroke:#181818;stroke-width:1;stroke-dasharray:2,2;" x1="536.0389" x2="536.0389" y1="1328.6705" y2="1341.6705"/><line style="stroke:#181818;stroke-width:1;stroke-dasharray:2,2;" x1="495.0389" x2="536.0389" y1="1341.6705" y2="1341.6705"/><polygon fill="#181818" points="505.0389,1337.6705,495.0389,1341.6705,505.0389,1345.6705,501.0389,1341.6705" style="stroke:#181818;stroke-width:1;"/><text fill="#000000" font-family="sans-serif" font-size="13" lengthAdjust="spacing" textLength="303.0563" x="501.0389" y="1322.8615">store NodeID2 &#8594; peer index (Tunnel2 connection)</text><polygon fill="#181818" points="329.5632,1369.3765,319.5632,1373.3765,329.5632,1377.3765,325.5632,1373.3765" style="stroke:#181818;stroke-width:1;"/><line style="stroke:#181818;stroke-width:1;stroke-dasharray:2,2;" x1="323.5632" x2="483.0389" y1="1373.3765" y2="1373.3765"/><text fill="#000000" font-family="sans-serif" font-size="13" lengthAdjust="spacing" textLength="357.5132" x="335.5632" y="1367.5675">forward_locally: UNICAST NodeState(NodeID2) to NodeID1</text><path d="M10,1354.6705 L10,1399.6705 L308,1399.6705 L308,1364.6705 L298,1354.6705 L10,1354.6705" fill="#FFFFE0" style="stroke:#181818;stroke-width:0.5;"/><path d="M298,1354.6705 L298,1364.6705 L308,1364.6705 L298,1354.6705" fill="#FFFFE0" style="stroke:#181818;stroke-width:0.5;"/><text fill="#000000" font-family="sans-serif" font-size="13" lengthAdjust="spacing" textLength="214.3702" x="16" y="1373.5675">All gateways are tried; only the one</text><text fill="#000000" font-family="sans-serif" font-size="13" lengthAdjust="spacing" textLength="277.5632" x="16" y="1391.2735">that knows NodeID1's stateEndpoint delivers.</text><line style="stroke:#181818;stroke-width:1;stroke-dasharray:2,2;" x1="318.5632" x2="360.5632" y1="1428.7885" y2="1428.7885"/><line style="stroke:#181818;stroke-width:1;stroke-dasharray:2,2;" x1="360.5632" x2="360.5632" y1="1428.7885" y2="1441.7885"/><line style="stroke:#181818;stroke-width:1;stroke-dasharray:2,2;" x1="319.5632" x2="360.5632" y1="1441.7885" y2="1441.7885"/><polygon fill="#181818" points="329.5632,1437.7885,319.5632,1441.7885,329.5632,1445.7885,325.5632,1441.7885" style="stroke:#181818;stroke-width:1;"/><text fill="#000000" font-family="sans-serif" font-size="13" lengthAdjust="spacing" textLength="314.3532" x="325.5632" y="1422.9795">create/retrieve RemoteNodeSurrogate for NodeID2</text><line style="stroke:#181818;stroke-width:1;stroke-dasharray:2,2;" x1="318.5632" x2="360.5632" y1="1473.4945" y2="1473.4945"/><line style="stroke:#181818;stroke-width:1;stroke-dasharray:2,2;" x1="360.5632" x2="360.5632" y1="1473.4945" y2="1486.4945"/><line style="stroke:#181818;stroke-width:1;stroke-dasharray:2,2;" x1="319.5632" x2="360.5632" y1="1486.4945" y2="1486.4945"/><polygon fill="#181818" points="329.5632,1482.4945,319.5632,1486.4945,329.5632,1490.4945,325.5632,1486.4945" style="stroke:#181818;stroke-width:1;"/><text fill="#000000" font-family="sans-serif" font-size="13" lengthAdjust="spacing" textLength="204.3862" x="325.5632" y="1467.6855">resolve NodeID1 &#8594; stateEndpoint</text><line style="stroke:#181818;stroke-width:1;stroke-dasharray:2,2;" x1="318.5632" x2="360.5632" y1="1518.2006" y2="1518.2006"/><line style="stroke:#181818;stroke-width:1;stroke-dasharray:2,2;" x1="360.5632" x2="360.5632" y1="1518.2006" y2="1531.2006"/><line style="stroke:#181818;stroke-width:1;stroke-dasharray:2,2;" x1="319.5632" x2="360.5632" y1="1531.2006" y2="1531.2006"/><polygon fill="#181818" points="329.5632,1527.2006,319.5632,1531.2006,329.5632,1535.2006,325.5632,1531.2006" style="stroke:#181818;stroke-width:1;"/><text fill="#000000" font-family="sans-serif" font-size="13" lengthAdjust="spacing" textLength="418.2233" x="325.5632" y="1512.3916">append surrogate measurementSocket endpoint to NodeState bytes</text><polygon fill="#181818" points="176.9775,1558.9066,166.9775,1562.9066,176.9775,1566.9066,172.9775,1562.9066" style="stroke:#181818;stroke-width:1;"/><line style="stroke:#181818;stroke-width:1;stroke-dasharray:2,2;" x1="170.9775" x2="307.5632" y1="1562.9066" y2="1562.9066"/><text fill="#000000" font-family="sans-serif" font-size="13" lengthAdjust="spacing" textLength="331.0452" x="182.9775" y="1557.0976">unicast PeerState(NodeID2) to NodeID1 stateEndpoint</text><polygon fill="#181818" points="65.3547,1590.6126,55.3547,1594.6126,65.3547,1598.6126,61.3547,1594.6126" style="stroke:#181818;stroke-width:1;"/><line style="stroke:#181818;stroke-width:1;stroke-dasharray:2,2;" x1="59.3547" x2="154.9775" y1="1594.6126" y2="1594.6126"/><text fill="#000000" font-family="sans-serif" font-size="13" lengthAdjust="spacing" textLength="168.1941" x="71.3547" y="1588.8036">receive PeerState(NodeID2)</text><rect fill="#EEEEEE" height="3" style="stroke:#EEEEEE;stroke-width:1;" width="1263.4395" x="5" y="1624.4656"/><line style="stroke:#000000;stroke-width:1;" x1="5" x2="1268.4395" y1="1624.4656" y2="1624.4656"/><line style="stroke:#000000;stroke-width:1;" x1="5" x2="1268.4395" y1="1627.4656" y2="1627.4656"/><rect fill="#EEEEEE" height="25.706" style="stroke:#000000;stroke-width:2;" width="163.2271" x="555.1062" y="1612.6126"/><text fill="#000000" font-family="sans-serif" font-size="13" font-weight="bold" lengthAdjust="spacing" textLength="145.8471" x="561.1062" y="1630.5096">Timing Measurements</text><rect fill="none" height="109.4266" style="stroke:#000000;stroke-width:1.5;" width="1142.4016" x="10.1929" y="1648.3186"/><path d="M10.1929,1648.3186 L73.1929,1648.3186 L73.1929,1657.3186 L63.1929,1667.3186 L10.1929,1667.3186 L10.1929,1648.3186" fill="#EEEEEE" style="stroke:#000000;stroke-width:2;"/><text fill="#000000" font-family="sans-serif" font-size="13" font-weight="bold" lengthAdjust="spacing" textLength="18.616" x="23.1929" y="1664.2156">ref</text><text fill="#000000" font-family="sans-serif" font-size="12" lengthAdjust="spacing" textLength="545.944" x="308.4217" y="1684.1467">Ableton Link timing measurements (MEASUREMENT_PING / MEASUREMENT_PONG) flow through</text><text fill="#000000" font-family="sans-serif" font-size="12" lengthAdjust="spacing" textLength="405.603" x="378.5922" y="1700.4908">the same tunnel via each RemoteNodeSurrogate's measurementSocket.</text><text fill="#000000" font-family="sans-serif" font-size="12" lengthAdjust="spacing" textLength="433.3951" x="364.6962" y="1716.8349">The gateway maps measurement source endpoints to synthetic NodeIds and</text><text fill="#000000" font-family="sans-serif" font-size="12" lengthAdjust="spacing" textLength="506.2837" x="328.2518" y="1733.179">forwards pings/pongs as MEASUREMENT_PING / MEASUREMENT_PONG tunnel messages.</text><text fill="#000000" font-family="sans-serif" font-size="12" lengthAdjust="spacing" textLength="306.9022" x="427.9426" y="1749.5232">See: TunnelGateway::handle_measurement_message()</text><?plantuml-src hLZRRjj647tdLqmTe9LWnObOz4M6KyYsuXYHPS6o2nGm8Ap8aKHukSlkBgqeHO4yvRa8yeNvaixo8bxjA401lv1SdPavS_RChlL382AcM0ZCCrBDp9OZl9ESousZTzyMp7jOAHaB_qnogO07gxM9OXLnBAtIQ-RBJI1Mi6HSbxy8QV2q3MEBIIJdfqYnLSZ0eFm8HiMuUwFnhnY5XrUeDLlXB68YNL2WJvaoWHVG5pDblcyJ-FMruoG5mN31qKWn3iH3tt4MyWCSp0A3q3-05rEvyL6TSa83Y0eK60ydjJUtiH38BvZ13TlsQnyFxlmeNN0lEZf1xnu0qzcl-WuA7oXqERvBySUMWWl9VHGtqlypvU9xq6uPsdqkJRTPbLkaqg37TPoJamm1PcZY24vE72Uh0Lw-oMF206xl9fFHUFvkD1vVE_dhtOf-VONjFyX7LFc2NYd_KsdMe0CVDJMM2Ieoa0BEBsTdrmHnTZiwXs-Vlq3sT3cvA3-Epey8uZrYn7ZmY80KP0k_WJw622cU9uM5LkW3bze0MnfwswS5i0dCMiO6tez6q-7uye_HKKAEpJLXubH9vdjCcm5Cf8-Nv_qaSDgzX9gojcprH30S7bBnY_odCAKaPeRwqSamkevTjQCgLnIyVFdzNoOqAYiQglbQO1M32gPT9Jt68H1KvP9vQCaPyj8B3I6jLEYXPSki4JGBiGXRvg2UOIFd0MZI4ExeqJRTaV0ZIV7WPmYHwLXXYCBaRqir36hhJq3BM7a8bzD199K1kKmIZCWuqDoB5ZJwpLB9iE2A5cyvbR9VxYg8oZa2vh0rKDjsMsFwjDWQr4y6s7LoATM6ARzpUdCzF3yRpcvxEK-zEbYtPPVP30Dz7aSyy6ZXJeo_amyyuBRGv26icLvtKg2QHju6YfIqolH1ok19BTH-gNpuEuCO90Wzwlhcdnv4Idg8lbNEsrXH0rG58DqtWO3-wzSGfa-5ZYnG4a87d1ZbM_2LZA8KRWZUceaLRSLaMSSFbalQcSHt8eGkC4vHDFLGQsi6QveMgtLJaHMMYEiNAx9Geel618jqp2slEzOBhejzr69fITDoe6zVFwL_wRuHQF9Ndx_S2n_t3ECZUMpmQDVbWw3fbMvZ5rdw4kyAADG7wEJPafK9zAmvPbtckAHDTAUjjp5hQqO2KKPVOX5OhUXxGVDGqUIa9VGnZs37kNtEa8-QMUKJfCfB9kbvOZASDFXZvRirIscBDm1F8JsyKaZRazmSRZ2aOXFyM2bfjMWJoOifg225jQrTK-uQMAgncRHU0emKnSfRFttV8uY5dKOBUqon35bXDonrfySzgc4aVbgkT-aqWXQkatNeIPTninbJwyfp8oDriY9wYGJ7IQ7ULCu0LUXyJhJC8ZiXxrAP4UqweZcBkIcvEyUqQgjDIXkYhOnCiurORhSitVPIChJdrVjKCMxtc2BC1JtC0vz6Igwi1ljj3IxlNNUl2RWVwfEpwRl3g0pPle4xTvFByaHo6nEfHuoS5BqkmCgsnQLye4FYZ_XM6r0oBSlUdMNNy9IA4bgWTgFts-T_d_3lhv-g_hrVgAUTh5y9NrT3EoDk2oFzfWpg1ud2TVTBkZGYx0amc-7aX9IWjLR_6AIW0MqjJWgy5sRD33pG8K3d6B_ecg1zj8TifO-UcMsbz5iENJ_cxkvUc3JW97-i3j1AtdkX_9zEtSyzBk_XdkPMIJhzUSMUBUwpJfPUuOBGte6lYlnrOi8Ab-abh8pOgru18Ny4-mmcXGhBK9shqN1sTpEw6arkvrDx7ti5bLVNamiQF7INpOzmXBex8PhqVlaOC209hTi4GB9hS6_FZxU4aHz5Gzh25N_CxWvvYxJbLMz9r4ZttvHXUmmGFW5bEufEcbISVaMpQwNjdNgFmlBym_JV4ThcDKEQV9N-3mPqqFKvpaiPphEVTBh90OAQuVm7?></g></svg>